<?xml version="1.0" encoding="UTF-8"?>
<svg version="1.1" xmlns="http://www.w3.org/2000/svg" width="384" height="437">
<path d="M0 0 C6.06551083 4.37227072 8.91477921 9.91543 11 17 C11 17.66 11 18.32 11 19 C11.99 19 12.98 19 14 19 C14.04125 18.21625 14.0825 17.4325 14.125 16.625 C15.88508106 9.33323561 19.83803229 2.86812361 26.296875 -1.10546875 C33.09672924 -4.67695182 40.23187887 -5.09500456 47.6875 -3.3828125 C55.53415587 -0.67954386 59.71628949 4.24292787 63.9375 11.1875 C65.00953967 14.02525206 65.26493996 15.99734715 65 19 C66.32 19 67.64 19 69 19 C69.0825 17.80375 69.165 16.6075 69.25 15.375 C70.12108358 8.68884492 73.99615951 4.43901107 79.09375 0.32421875 C85.4902259 -4.1192348 92.34536903 -4.97996698 100 -4 C105.86831245 -2.31297355 110.01123939 0.32745185 114 5 C114.721875 5.804375 115.44375 6.60875 116.1875 7.4375 C120.45893845 13.47643022 120.7521394 19.82048752 120 27 C118.47962466 33.92842184 115.23915731 38.85540977 109.79296875 43.37109375 C104.61049888 46.39359716 98.88010863 47.19702642 93 48 C92.79375 49.155 92.5875 50.31 92.375 51.5 C90.64909413 58.3191386 86.05640912 64.18081333 80.17578125 68.02734375 C73.42437106 71.04547865 65.19375007 71.95135323 58.05859375 69.8828125 C49.36122288 66.15301019 44.82768099 59.55462042 41.3125 51.0625 C40.34988538 47.90580009 40.34988538 47.90580009 38 47 C37.92523438 47.6290625 37.85046875 48.258125 37.7734375 48.90625 C36.75411045 55.54186925 34.99016533 60.36994969 30 65 C22.69461908 69.9860155 15.21876412 71.88810894 6.5 70.4375 C-0.29368494 68.64406219 -6.0118734 64.94674803 -10 59.125 C-12.25097967 55.11810149 -12.75588008 51.55690513 -13 47 C-13.6290625 47.04640625 -14.258125 47.0928125 -14.90625 47.140625 C-22.14869631 47.44602936 -27.28845735 46.40014338 -32.72265625 41.421875 C-38.37255472 35.2583494 -40.97201623 28.32517059 -41 20 C-40.35093917 11.71741935 -36.45026549 6.35946903 -30.625 0.6875 C-20.74090841 -5.66655888 -10.25811821 -5.81006023 0 0 Z M26.1875 5.75 C22.85642461 9.17624898 20.35968147 12.70438591 19.6015625 17.54296875 C19.73957472 20.16459823 19.73957472 20.16459823 22.01171875 21.5546875 C22.89472656 21.99039062 23.77773437 22.42609375 24.6875 22.875 C32.33903732 27.12225165 35.02996192 32.03838226 37.51953125 40.27734375 C37.67808594 40.84582031 37.83664063 41.41429687 38 42 C39.97114195 41.89934567 39.97114195 41.89934567 42 41 C43.07613905 38.68541153 43.07613905 38.68541153 43.75 35.875 C46.17643776 28.51926347 50.71290305 24.55254749 57.5 21.0625 C58.7375 20.5365625 58.7375 20.5365625 60 20 C59.41608447 13.86888698 57.1387822 10.07937158 52.75 5.8125 C43.73593063 -0.12859118 35.35096961 0.04828558 26.1875 5.75 Z M-30.875 8.9375 C-34.98386503 14.8590996 -35.88055117 19.85775163 -35 27 C-33.03634954 33.20938117 -29.74486209 36.79713995 -24.140625 40.09375 C-21.67221825 41.13876891 -19.91679467 41.20343514 -17.25 41.125 C-16.45078125 41.10695313 -15.6515625 41.08890625 -14.828125 41.0703125 C-14.22484375 41.04710937 -13.6215625 41.02390625 -13 41 C-12.78085938 40.35933594 -12.56171875 39.71867187 -12.3359375 39.05859375 C-9.45137272 31.19053292 -6.27340995 25.44075734 1.375 21.5625 C2.57125 21.046875 3.7675 20.53125 5 20 C4.40812998 13.78536478 2.12453574 9.91208217 -2.5 5.75 C-11.72944232 -0.71060963 -23.29105351 0.4055602 -30.875 8.9375 Z M77.625 9.375 C75.64707985 12.57010178 74.8587048 15.35050458 74 19 C74.66386719 19.43570312 75.32773438 19.87140625 76.01171875 20.3203125 C85.09744873 26.4482063 89.32282746 31.60531113 93 42 C99.07936783 41.72980587 103.17774296 41.03723846 108 37 C113.30399125 31.10667639 114.47113373 26.89269366 114.30859375 19.04296875 C113.77874702 13.81827762 112.19367262 9.99424784 108.28125 6.4375 C97.92318912 -1.28715557 86.43145143 0.56854857 77.625 9.375 Z M11 25 C10.78085938 25.64066406 10.56171875 26.28132813 10.3359375 26.94140625 C7.45137272 34.80946708 4.27340995 40.55924266 -3.375 44.4375 C-4.57125 44.953125 -5.7675 45.46875 -7 46 C-6.88547605 52.41334147 -5.42110129 55.67842367 -0.953125 60.30078125 C3.74357382 64.38690923 8.6589908 65.59172487 14.734375 65.34375 C21.14429099 64.37121102 25.8814926 60.94327753 29.87890625 55.94921875 C31.76264647 52.67400492 31.86868157 49.74257528 32 46 C30.80375 45.484375 29.6075 44.96875 28.375 44.4375 C20.0652401 40.22389383 16.92300294 33.54548505 14 25 C13.01 25 12.02 25 11 25 Z M65 25 C64.76925781 25.73605469 64.53851563 26.47210938 64.30078125 27.23046875 C61.39331135 35.9298945 57.90497232 40.18827772 50 45 C49.01 45.33 48.02 45.66 47 46 C47.43696537 51.46206707 48.49678416 54.75926504 52 59 C57.56170166 63.70020801 62.06074794 65.37320083 69.3671875 65.27734375 C74.93560332 64.69075989 79.18586032 62.22488208 82.875 58.0625 C85.8517109 53.77253429 87 51.24236278 87 46 C86.02160156 45.61521484 86.02160156 45.61521484 85.0234375 45.22265625 C78.07785426 42.180122 74.33042 38.83551237 71 32 C70.11380563 29.6468528 69.52520598 27.4684681 69 25 C67.68 25 66.36 25 65 25 Z M20 26 C21.32525564 31.06006699 23.34390181 34.25887627 27 38 C29.6514482 39.39819512 29.6514482 39.39819512 32 40 C30.41316357 33.79691213 27.52196689 30.62526755 22.1875 27.1875 C21.465625 26.795625 20.74375 26.40375 20 26 Z M58 26 C52.63386617 30.19348701 49.13578723 33.4591516 47 40 C52.19988134 38.36575158 55.42643587 35.43187184 58.375 30.875 C59.27083333 28.8125 59.27083333 28.8125 58 26 Z M75 27 C76.96798487 33.83006515 78.91583598 36.32654248 85 40 C85.66 39.67 86.32 39.34 87 39 C84.23513027 34.15265392 81.78993734 30.10698638 77 27 C76.34 27 75.68 27 75 27 Z M-3 31 C-5.18702362 33.98893229 -6 35.27944454 -6 39 C-1.57883696 37.64908907 0.48076658 35.86882275 3 32 C3.78946609 29.31492671 3.78946609 29.31492671 4 27 C1.4589406 27 -1.09784242 29.59240339 -3 31 Z " fill="#212524" transform="translate(154,366)"/>
<path d="M0 0 C12.36036872 6.30631057 18.67934074 16.50970301 23.23828125 29.359375 C28.88438413 48.93253166 23.34251851 70.49916222 14 88 C11.25629686 92.84826987 8.18212853 97.4307898 5 102 C4.35933594 102.9590625 3.71867187 103.918125 3.05859375 104.90625 C-14.75703308 130.28741699 -43.0234726 152.29294182 -74 158 C-78.40689778 158.3862975 -82.76610208 158.42167751 -87.1875 158.375 C-88.29802734 158.38660156 -89.40855469 158.39820313 -90.55273438 158.41015625 C-97.02177836 158.38720281 -103.15425423 158.03282837 -109 155 C-109.33 154.34 -109.66 153.68 -110 153 C-109.46221924 152.87471924 -108.92443848 152.74943848 -108.37036133 152.62036133 C-76.8929381 145.21529164 -53.07656337 130.30758756 -30 108 C-29.43571289 107.45980225 -28.87142578 106.91960449 -28.29003906 106.36303711 C-9.80798072 88.34226566 6.93129711 61.9011085 7.37963867 35.40136719 C7.37810791 34.52641602 7.37657715 33.65146484 7.375 32.75 C7.37411377 31.8312207 7.37322754 30.91244141 7.37231445 29.96582031 C7.23991602 22.31762644 5.82289165 16.13311331 3 9 C2.40743862 7.23223319 1.82310863 5.46166881 1.25 3.6875 C0.8375 2.470625 0.425 1.25375 0 0 Z " fill="#0344A6" transform="translate(280,78)"/>
<path d="M0 0 C10.27934143 9.39825502 14.41393056 21.66399866 15.03515625 35.421875 C14.73533776 65.93673471 -3.35156689 90.35156689 -24 111 C-24.76957031 111.81597656 -25.53914063 112.63195312 -26.33203125 113.47265625 C-46.70791295 134.74700202 -76.99239537 154.56015002 -107.26977539 155.29150391 C-116.07477277 155.37213747 -123.86160249 154.77313184 -132 151 C-132.33 150.34 -132.66 149.68 -133 149 C-131.42025391 148.88785156 -131.42025391 148.88785156 -129.80859375 148.7734375 C-106.06850153 146.75902575 -85.06419805 134.00373474 -67 119 C-66.08476562 118.27425781 -65.16953125 117.54851562 -64.2265625 116.80078125 C-35.62247725 93.97488514 -4.11513393 61.2145625 1.52734375 23.47265625 C2.32247809 15.38730148 1.59728127 7.94680434 0 0 Z " fill="#F50404" transform="translate(260,69)"/>
<path d="M0 0 C0.66 0 1.32 0 2 0 C2.63615234 1.37671875 2.63615234 1.37671875 3.28515625 2.78125 C11.93601089 21.07825657 23.18346319 27.81883516 41.86523438 34.58911133 C57.34381571 40.23524294 74.02428763 46.57875267 82 62 C87 73.49470899 87 73.49470899 87 77 C84.07844981 75.91794437 82.89336269 74.86427979 80.9375 72.375 C73.37050794 62.98463636 61.6734586 57.99685981 51 53 C50.34483398 52.69223633 49.68966797 52.38447266 49.01464844 52.06738281 C45.35439494 50.35308687 41.6829628 48.66490099 38 47 C38 46.01 38 45.02 38 44 C36.02 44 34.04 44 32 44 C31.505 42.02 31.505 42.02 31 40 C29.02 39.505 29.02 39.505 27 39 C27 37.35 27 35.7 27 34 C25.35 34.33 23.7 34.66 22 35 C20.68 33.02 19.36 31.04 18 29 C16.02 29.33 14.04 29.66 12 30 C11.505 28.02 11.505 28.02 11 26 C10.44570312 26.49371094 9.89140625 26.98742187 9.3203125 27.49609375 C8.59585938 28.13675781 7.87140625 28.77742188 7.125 29.4375 C6.40570313 30.07558594 5.68640625 30.71367188 4.9453125 31.37109375 C3 33 3 33 1 34 C-0.12588014 33.04270084 -1.2506715 32.08412105 -2.375 31.125 C-3.00148438 30.59132813 -3.62796875 30.05765625 -4.2734375 29.5078125 C-5.55836651 28.38567993 -6.79371975 27.20628025 -8 26 C-8.66 27.32 -9.32 28.64 -10 30 C-11.98 29.67 -13.96 29.34 -16 29 C-17.32 30.98 -18.64 32.96 -20 35 C-21.65 34.67 -23.3 34.34 -25 34 C-25 35.65 -25 37.3 -25 39 C-26.98 39.495 -26.98 39.495 -29 40 C-29.33 41.32 -29.66 42.64 -30 44 C-31.98 44 -33.96 44 -36 44 C-36 44.99 -36 45.98 -36 47 C-36.73001221 47.32162109 -37.46002441 47.64324219 -38.2121582 47.97460938 C-41.58502306 49.46975017 -44.94863976 50.98471483 -48.3125 52.5 C-49.46041016 53.0053125 -50.60832031 53.510625 -51.79101562 54.03125 C-61.99628974 58.65687 -70.89661668 64.3436606 -78.625 72.5 C-80.06973694 74.01309989 -81.52372734 75.51765215 -83 77 C-83.33 77 -83.66 77 -84 77 C-83.63681301 67.55713825 -79.21428345 58.4453015 -72.73046875 51.578125 C-64.82998566 44.37316976 -55.89359527 40.65414414 -46 37 C-19.10789916 26.96972509 -19.10789916 26.96972509 -1.96484375 4.8046875 C-1.27433839 3.21813099 -0.63052242 1.61133507 0 0 Z " fill="#222423" transform="translate(167,16)"/>
<path d="M0 0 C6.77924724 4.73492171 9.29629234 11.41217527 12 19 C11.01 19.495 11.01 19.495 10 20 C10 21.32 10 22.64 10 24 C10.66 24.33 11.32 24.66 12 25 C9.07120638 33.87733717 5.19971371 41.10507505 -3.375 45.5 C-7 47 -7 47 -8 47 C-8.5625 44.4375 -8.5625 44.4375 -8 41 C-6.13671875 39.359375 -6.13671875 39.359375 -3.75 37.6875 C1.14068042 34.17762683 3.65815986 30.91403616 5 25 C5.46298874 19.21756613 3.87848201 14.51493164 0.56640625 9.796875 C-2.90656776 5.81291479 -6.41240461 3.42623656 -11.6796875 2.55859375 C-17.91738579 2.29077014 -22.9130137 3.29600052 -28 7 C-32.3784635 11.49368622 -34.09026787 15.60533947 -34.375 21.8125 C-34.23700318 26.96438137 -33.22692422 30.92102275 -30 35 C-25.07107033 39.38369409 -20.45073978 40.54731651 -14 41 C-13 42 -13 42 -12.9375 44.5625 C-12.958125 45.366875 -12.97875 46.17125 -13 47 C-19.92537156 47.51088807 -25.2756369 47.18555581 -31 43 C-37.14213431 37.37319215 -40.34354873 30.62961522 -40.9921875 22.32421875 C-41.01909559 14.31906201 -38.34152458 8.86102448 -33 3 C-23.71626537 -6.03942582 -10.93896861 -6.16928364 0 0 Z " fill="#0C68B5" transform="translate(154,366)"/>
<path d="M0 0 C2.8125 2.4375 2.8125 2.4375 5 5 C5.721875 5.804375 6.44375 6.60875 7.1875 7.4375 C11.45893845 13.47643022 11.7521394 19.82048752 11 27 C9.41711192 34.21329535 6.00035451 38.59753501 0.51171875 43.40625 C-7.26886271 48.34322859 -16.30804263 47.47336088 -25 46 C-31.0219589 43.62572152 -34.99508579 39.63827483 -38.13671875 34.03515625 C-39.42767663 30.99176686 -39.79424937 28.29201016 -40 25 C-38.35 25 -36.7 25 -35 25 C-34.6596875 25.73605469 -34.319375 26.47210938 -33.96875 27.23046875 C-31.22488421 32.7546879 -28.86159691 37.32812609 -23.26953125 40.2578125 C-17.29107152 42.2129026 -11.28097909 41.91084059 -5.5625 39.3125 C-0.93696465 36.63555418 1.95011668 32.8988737 4 28 C4.80144674 21.47659627 4.6417276 15.38005686 1.27734375 9.62109375 C-1.4846707 6.11578489 -4.84905776 4.38364741 -9 3 C-15.93960475 2.28033728 -21.63073757 2.27523203 -27.3828125 6.51171875 C-31.54126796 10.33870312 -33.47032078 14.64612272 -35 20 C-36.65 19.67 -38.3 19.34 -40 19 C-39.47734671 11.42152731 -37.39189714 7.05508478 -31.75 1.8125 C-22.34955526 -5.77557086 -10.2859267 -6.40013217 0 0 Z " fill="#D71447" transform="translate(263,366)"/>
<path d="M0 0 C2.64 0 5.28 0 8 0 C10.64 5.28 13.28 10.56 16 16 C18.31 10.72 20.62 5.44 23 0 C25.64 0 28.28 0 31 0 C31 9.9 31 19.8 31 30 C28.36 30 25.72 30 23 30 C22.67 27.69 22.34 25.38 22 23 C21.01 25.31 20.02 27.62 19 30 C17.02 30 15.04 30 13 30 C11.68 27.36 10.36 24.72 9 22 C8.7834375 23.7015625 8.7834375 23.7015625 8.5625 25.4375 C8 29 8 29 7 30 C4.69 30 2.38 30 0 30 C0 20.1 0 10.2 0 0 Z " fill="#232524" transform="translate(247,264)"/>
<path d="M0 0 C3.3125 -0.3125 3.3125 -0.3125 7 0 C10.48672743 4.81168385 12.5927193 10.59988383 15 16 C17.64 10.72 20.28 5.44 23 0 C25.31 0 27.62 0 30 0 C30 9.9 30 19.8 30 30 C27.69 30 25.38 30 23 30 C22.67 27.03 22.34 24.06 22 21 C20.02 25.455 20.02 25.455 18 30 C16.02 30 14.04 30 12 30 C10.68 27.03 9.36 24.06 8 21 C7.67 23.97 7.34 26.94 7 30 C4.69 30 2.38 30 0 30 C-1.38297872 9.46808511 -1.38297872 9.46808511 0 0 Z " fill="#232524" transform="translate(70,264)"/>
<path d="M0 0 C0.433125 0.928125 0.86625 1.85625 1.3125 2.8125 C2.72038627 5.47184073 3.76123556 7.08105905 6 9 C4.52037161 13.39801146 2.09130835 16.72823456 -0.6875 20.375 C-10.53657556 33.77231162 -15.93099182 48.33821738 -17 65 C-20.27666439 62.81555707 -20.43754117 62.58954652 -21.1875 59 C-24.07543591 43.55688509 -20.40720986 25.15963954 -12.0390625 11.890625 C-3.57721561 0 -3.57721561 0 0 0 Z " fill="#222423" transform="translate(119,96)"/>
<path d="M0 0 C0.3125 2.25 0.3125 2.25 0 5 C-2.1875 7 -2.1875 7 -5 9 C-9.12351608 12.63262131 -11.43320401 15.69030248 -13 21 C-13.14850218 26.84727334 -12.31389664 32.08629119 -9 37 C-4.19128276 41.59964258 -0.31880522 44.02299578 6.3125 44.375 C11.94831666 44.22496162 16.31337533 42.36613899 20.5390625 38.64453125 C23.83882445 35.04566807 24.98002876 31.63623291 26 27 C27.65 27 29.3 27 31 27 C32.4203856 31.2611568 30.82174799 34.1207484 29 38 C25.67065512 44.56433587 20.83960125 47.53610777 14 50 C6.89260476 51.82149325 0.16927326 51.07782409 -6.390625 47.80859375 C-13.02418725 43.77793589 -16.69937591 39.44283981 -18.8828125 31.984375 C-20.51569626 24.06395033 -19.95985433 18.09244105 -16 11 C-12.05993316 5.27503541 -7.42394156 0 0 0 Z " fill="#F4A61C" transform="translate(160,386)"/>
<path d="M0 0 C2.701875 -0.061875 5.40375 -0.12375 8.1875 -0.1875 C9.02949951 -0.21481201 9.87149902 -0.24212402 10.73901367 -0.27026367 C15.30968651 -0.32078936 18.3168858 -0.01281564 22 3 C23.64260063 6.28520127 24.25018394 8.04475223 23.3125 11.625 C22.03970323 13.92815606 20.5970712 15.91456818 19 18 C19.433125 18.61488281 19.86625 19.22976563 20.3125 19.86328125 C20.869375 20.67152344 21.42625 21.47976563 22 22.3125 C22.556875 23.11300781 23.11375 23.91351563 23.6875 24.73828125 C25 27 25 27 25 30 C20.06735751 30.96891192 20.06735751 30.96891192 17 30 C13.83131402 26.64397616 11.40002153 22.93195016 9 19 C8.67 22.63 8.34 26.26 8 30 C5.36 30 2.72 30 0 30 C0 20.1 0 10.2 0 0 Z M8 7 C8 9.31 8 11.62 8 14 C11.00384054 13.3045656 11.00384054 13.3045656 14 12 C14.96877057 9.96756452 14.96877057 9.96756452 15 8 C12.69 7.67 10.38 7.34 8 7 Z " fill="#232524" transform="translate(118,307)"/>
<path d="M0 0 C3.91075925 1.98968453 5.57689098 3.36533646 8 7 C9.84757016 13.65125258 9.55562651 19.25878179 6.1796875 25.265625 C4.33973956 27.97071403 3.13307047 28.93342282 0 30 C-5.32519812 30.64325788 -9.59041246 30.65445136 -14.5 28.375 C-19.18017729 23.92883157 -20.1883016 20.27746635 -20.375 13.9375 C-20.41035064 9.35959176 -19.70911336 6.72017002 -17 3 C-11.83907943 -0.74166742 -6.14036463 -0.83939606 0 0 Z M-10.4375 7.875 C-12.61747239 10.83976244 -12.55967776 13.21808435 -12.3828125 16.83203125 C-12.10365639 19.19472916 -12.10365639 19.19472916 -10.375 21.625 C-8.01547019 23.26512297 -8.01547019 23.26512297 -4.9375 22.9375 C-1.27020304 21.83643425 -1.27020304 21.83643425 1 19 C1.3033515 15.66313353 1.20956484 12.88482934 0.4375 9.625 C-1.03840627 7.65951583 -1.03840627 7.65951583 -4.375 7.0625 C-7.86284518 6.78840221 -7.86284518 6.78840221 -10.4375 7.875 Z " fill="#222423" transform="translate(56,264)"/>
<path d="M0 0 C4.66751846 3.98111868 6.91538886 7.33908854 7.4375 13.5 C7.36884035 18.15169105 5.97962124 22.12357685 3.125 25.8125 C-2.36665709 29.97429588 -8.26163521 29.7097907 -14.875 28.8125 C-18.88968874 26.93897859 -21.25327174 23.88854022 -22.875 19.8125 C-23.17578125 16.97265625 -23.17578125 16.97265625 -23.1875 13.875 C-23.20425781 12.85535156 -23.22101563 11.83570313 -23.23828125 10.78515625 C-22.71722623 6.52146951 -21.08385273 3.87024613 -17.875 1.0625 C-12.62606143 -2.21808661 -5.64194614 -2.33036906 0 0 Z M-14.875 9.8125 C-15.94848469 12.80292163 -15.99347103 14.36015605 -15.1875 17.4375 C-13.65167102 20.2166191 -12.77821463 21.47859058 -9.875 22.8125 C-6.21921001 22.31561357 -6.21921001 22.31561357 -2.875 20.8125 C-0.3834096 17.0751144 -0.41706715 15.23918417 -0.875 10.8125 C-2.33133124 7.78311306 -2.33133124 7.78311306 -4.875 5.8125 C-9.72230648 4.90363003 -11.98538674 5.85265961 -14.875 9.8125 Z " fill="#222423" transform="translate(318.875,308.1875)"/>
<path d="M0 0 C0.234375 2.3203125 0.234375 2.3203125 0 5 C-1.609375 6.5546875 -1.609375 6.5546875 -3.75 7.875 C-9.0469938 11.54070721 -11.0859481 15.02933133 -13 21.25 C-13 27.46836808 -11.4786086 33.44673452 -7.0546875 38.00390625 C-0.94733317 42.68020154 4.38042863 43.81275428 12 43 C17.27404887 41.34680581 21.12298967 38.79501721 24 34 C25.15128437 31.03955447 26.12231052 28.05196568 27 25 C28.65 25 30.3 25 32 25 C33.40359999 27.80719999 32.64935483 29.84678659 31.8515625 32.77734375 C29.39984137 39.17656083 24.30110927 45.18316659 18 48 C9.61321551 50.26757821 1.62221749 51.12232042 -6.15234375 46.8046875 C-13.78369481 41.60343147 -17.10659197 34.52793945 -20 26 C-19.34 26 -18.68 26 -18 26 C-18.2475 25.236875 -18.495 24.47375 -18.75 23.6875 C-19.17096802 17.47822167 -17.10940643 11.74418151 -13.3125 6.8046875 C-9.17024006 2.53744558 -6.12075317 0 0 0 Z " fill="#14813B" transform="translate(214,387)"/>
<path d="M0 0 C3.89130403 3.89130403 5.43255988 7.54612263 5.55859375 13.06640625 C5.22702917 17.80001967 4.72343386 21.83195458 1.5 25.5 C-3.51339319 29.04605859 -8.57116617 29.21503524 -14.5 28.5 C-19.12788172 26.68908976 -21.41487838 23.97915015 -23.5 19.5 C-24.25743793 12.80929831 -24.6232673 7.09656904 -20.5 1.5 C-14.4444205 -2.89029514 -6.70368895 -2.87300955 0 0 Z M-15.5 9.5 C-16.74838381 12.90528996 -16.74838381 12.90528996 -16.5 16.5 C-14.66666667 19.66666667 -14.66666667 19.66666667 -11.5 21.5 C-7.81809464 21.76006315 -7.81809464 21.76006315 -4.5 20.5 C-2.55916508 18.22162858 -2.5035108 16.52750126 -2.125 13.5625 C-2.59851305 9.69547679 -3.64550883 8.12304594 -6.5 5.5 C-10.91276338 4.50712824 -12.93381178 5.9256664 -15.5 9.5 Z " fill="#232424" transform="translate(200.5,265.5)"/>
<path d="M0 0 C3.92461793 3.34746823 6.23537741 5.95770728 7.0625 11.125 C7.47781176 17.05802517 5.8783225 21.6756382 2.125 26.25 C-2.28092792 29.69213119 -7.5411938 29.28262715 -12.875 28.8125 C-17.05645284 27.08537818 -19.29975328 24.49142389 -21.875 20.8125 C-23.68166064 15.39251809 -23.55288512 10.67910264 -21.25 5.5 C-16.90914648 -2.17185571 -7.72355205 -3.1901628 0 0 Z M-13.25 7.9375 C-15.16826913 11.33136077 -15.51447837 12.97562978 -14.875 16.8125 C-13.485911 19.86163936 -13.485911 19.86163936 -10.875 21.8125 C-7.27469811 22.1434316 -7.27469811 22.1434316 -3.875 20.8125 C-1.68707646 18.77743065 -1.68707646 18.77743065 -0.875 15.8125 C-0.99474528 12.33988683 -1.23414836 9.85810004 -3.0625 6.875 C-6.98700577 4.57442765 -9.92496843 4.96247175 -13.25 7.9375 Z " fill="#222424" transform="translate(373.875,265.1875)"/>
<path d="M0 0 C7.79365624 3.49020258 11.61154732 10.67102817 15.3125 18 C15.64991211 18.66402832 15.98732422 19.32805664 16.33496094 20.01220703 C19.71644814 26.97177952 22.01985044 34.22364039 21 42 C19.17692935 44.18874471 17.40720651 45.39519566 15 47 C14.79246094 46.50113281 14.58492187 46.00226563 14.37109375 45.48828125 C9.75230502 34.72399119 4.27407108 24.89793165 -2.79931641 15.58129883 C-6 11.3039991 -6 11.3039991 -6 8 C-5.38125 7.54625 -4.7625 7.0925 -4.125 6.625 C-1.5722991 4.67293461 -0.97654793 3.01102279 0 0 Z " fill="#222323" transform="translate(215,96)"/>
<path d="M0 0 C6.93 0 13.86 0 21 0 C21 2.31 21 4.62 21 7 C16.71 7 12.42 7 8 7 C8 8.32 8 9.64 8 11 C11.96 11 15.92 11 20 11 C20 13.31 20 15.62 20 18 C16.0186217 19.3271261 12.14954773 19.06915913 8 19 C8 20.32 8 21.64 8 23 C8.66 22.67 9.32 22.34 10 22 C13.83936768 21.8578012 17.32016639 21.82245324 21 23 C21.04254356 24.99954746 21.04080783 27.00041636 21 29 C20 30 20 30 18.05053711 30.11352539 C17.2178833 30.10828857 16.38522949 30.10305176 15.52734375 30.09765625 C14.71773193 30.09515869 13.90812012 30.09266113 13.07397461 30.09008789 C12.03893799 30.08098389 11.00390137 30.07187988 9.9375 30.0625 C6.658125 30.041875 3.37875 30.02125 0 30 C0 20.1 0 10.2 0 0 Z " fill="#232524" transform="translate(143,264)"/>
<path d="M0 0 C2.33333333 2.33333333 4.66666667 4.66666667 7 7 C6.69126649 10.96098527 5.34280518 13.22779199 2.9375 16.3125 C-0.26899147 20.73136324 -2.86170036 25.262392 -5.3125 30.125 C-5.64967041 30.78153564 -5.98684082 31.43807129 -6.33422852 32.11450195 C-9.66239132 38.8490087 -11.04414987 45.58845623 -12.125 53 C-12.37636719 54.7015625 -12.37636719 54.7015625 -12.6328125 56.4375 C-12.81457031 57.7059375 -12.81457031 57.7059375 -13 59 C-15 58 -15 58 -16.10546875 54.875 C-19.39790778 40.6125567 -16.63691945 24.52278729 -9.76171875 11.7421875 C-6.96831733 7.3941436 -3.6378653 3.65633162 0 0 Z " fill="#222323" transform="translate(130,115)"/>
<path d="M0 0 C12.21590789 3.30159673 24.74760078 11.52949437 32 22 C35.58331359 29.04306464 36.13343976 35.26049398 36 43 C32.19962417 41.73320806 31.5927023 40.28548488 29.375 37 C23.04287191 28.09831269 15.50788535 21.38398408 6.87255859 14.8046875 C0.40301575 9.86927254 0.40301575 9.86927254 -2 7 C-1.6875 1.6875 -1.6875 1.6875 0 0 Z " fill="#222323" transform="translate(212,74)"/>
<path d="M0 0 C0.79664063 0.20496094 1.59328125 0.40992187 2.4140625 0.62109375 C3.47367188 0.89050781 4.53328125 1.15992187 5.625 1.4375 C6.66914063 1.70433594 7.71328125 1.97117187 8.7890625 2.24609375 C14.69857264 3.63360647 18.72479827 4.13472007 24.6875 2.625 C25.80511719 2.34914063 26.92273438 2.07328125 28.07421875 1.7890625 C30.06636235 1.25179547 32.04256218 0.65247927 34 0 C34 2.6875 34 2.6875 33 6 C28.97230625 9.54706204 24.13906037 11.5867584 19 13 C18.58821312 17.46599671 18.58821312 17.46599671 20.75 21.25 C24.44618035 24.12480694 27.03589416 25.26365017 31.75 25.125 C32.94882813 25.09792969 32.94882813 25.09792969 34.171875 25.0703125 C34.77515625 25.04710937 35.3784375 25.02390625 36 25 C36.125 28.375 36.125 28.375 36 32 C35.34 32.66 34.68 33.32 34 34 C30.03464356 33.71676025 27.19204595 31.17330788 24 29 C18.42201171 27.14067057 13.8468809 27.31637348 8.625 29.875 C6.32493535 31.11208656 4.86781078 32.13218922 3 34 C-0.53571429 33.46428571 -0.53571429 33.46428571 -2 32 C-2.04092937 29.66702567 -2.04241723 27.33294775 -2 25 C-1.35933594 25.05800781 -0.71867188 25.11601562 -0.05859375 25.17578125 C6.75259771 25.53105949 9.85421741 24.47459355 15 20 C15.31767742 16.30206473 15.31767742 16.30206473 14 13 C11.02816849 11.1116034 8.02466875 9.73394765 4.78515625 8.359375 C2 7 2 7 0 4 C0 2.68 0 1.36 0 0 Z " fill="#222322" transform="translate(151,112)"/>
<path d="M0 0 C0.76953125 2.7265625 0.76953125 2.7265625 1 6 C-0.73828125 8.2734375 -0.73828125 8.2734375 -3.3125 10.375 C-4.23417969 11.14457031 -5.15585938 11.91414063 -6.10546875 12.70703125 C-7.06066406 13.46371094 -8.01585938 14.22039062 -9 15 C-9.86238281 15.68449219 -10.72476563 16.36898437 -11.61328125 17.07421875 C-12.44214844 17.73035156 -13.27101563 18.38648437 -14.125 19.0625 C-21.85315795 25.19672537 -27.76972014 31.71417136 -33.3359375 39.875 C-33.88507813 40.57625 -34.43421875 41.2775 -35 42 C-35.66 42 -36.32 42 -37 42 C-36.64691971 30.57785249 -34.96170266 22.38815953 -27.03515625 13.90625 C-21.18577405 8.4273661 -8.15783971 -2.7192799 0 0 Z " fill="#222423" transform="translate(125,75)"/>
<path d="M0 0 C3.625 -0.1875 3.625 -0.1875 7 0 C10.20412418 6.84000978 13.35467466 13.70182232 16.375 20.625 C17.12910156 22.34589844 17.12910156 22.34589844 17.8984375 24.1015625 C19 27 19 27 19 30 C16.36 30 13.72 30 11 30 C9.5393715 27.35261084 9 26.10551666 9 23 C5.7 23 2.4 23 -1 23 C-2.32 25.31 -3.64 27.62 -5 30 C-7.31 30 -9.62 30 -12 30 C-11.5020528 23.60530966 -9.25963801 18.52415461 -6.5625 12.75 C-6.15451172 11.8528125 -5.74652344 10.955625 -5.32617188 10.03125 C-3.70788572 6.50428376 -2.157303 3.23595451 0 0 Z M2 12 C1.67 13.32 1.34 14.64 1 16 C2.32 16 3.64 16 5 16 C4.67 14.68 4.34 13.36 4 12 C3.34 12 2.68 12 2 12 Z " fill="#232524" transform="translate(157,307)"/>
<path d="M0 0 C2.64 0 5.28 0 8 0 C20 23.37752161 20 23.37752161 20 30 C17.69 30 15.38 30 13 30 C12.5359375 28.576875 12.5359375 28.576875 12.0625 27.125 C9.73757505 23.60238644 9.22496633 23.46162802 5.3125 22.625 C3.1778125 22.315625 3.1778125 22.315625 1 22 C-0.32 24.64 -1.64 27.28 -3 30 C-5.64 30 -8.28 30 -11 30 C-10.42133149 25.73058929 -9.39736392 22.12543909 -7.71484375 18.1640625 C-7.26689453 17.10058594 -6.81894531 16.03710938 -6.35742188 14.94140625 C-5.88884766 13.84699219 -5.42027344 12.75257813 -4.9375 11.625 C-4.46505859 10.50738281 -3.99261719 9.38976562 -3.50585938 8.23828125 C-2.3429918 5.48968515 -1.17421814 2.74376168 0 0 Z M4 11 C3.34 12.65 2.68 14.3 2 16 C3.65 16 5.3 16 7 16 C6.34 14.35 5.68 12.7 5 11 C4.67 11 4.34 11 4 11 Z " fill="#232524" transform="translate(95,307)"/>
<path d="M0 0 C2.31 0 4.62 0 7 0 C7.04898438 1.25296875 7.09796875 2.5059375 7.1484375 3.796875 C7.22348583 5.44793821 7.29903277 7.09897881 7.375 8.75 C7.4059375 9.575 7.436875 10.4 7.46875 11.25 C7.50742188 12.04921875 7.54609375 12.8484375 7.5859375 13.671875 C7.6173584 14.4050293 7.6487793 15.13818359 7.68115234 15.89355469 C8.03772523 18.24922918 8.83662883 19.93450591 10 22 C11.99954746 22.04254356 14.00041636 22.04080783 16 22 C17.61780157 20.38219843 17.22272147 18.54364482 17.31640625 16.30859375 C17.35830078 15.36435547 17.40019531 14.42011719 17.44335938 13.44726562 C17.48267578 12.45404297 17.52199219 11.46082031 17.5625 10.4375 C17.60568359 9.44041016 17.64886719 8.44332031 17.69335938 7.41601562 C17.79980298 4.9441585 17.90181928 2.4721969 18 0 C20.64 0 23.28 0 26 0 C26.08767555 3.37483413 26.14061628 6.74937215 26.1875 10.125 C26.21263672 11.07632812 26.23777344 12.02765625 26.26367188 13.0078125 C26.32001108 18.41637615 26.1888414 22.39946927 23 27 C20.69958852 29.33496702 19.44660241 29.93095701 16.1953125 30.43359375 C5.70105638 30.44694522 5.70105638 30.44694522 1 26 C-0.01973129 22.94080612 -0.11533602 20.87581975 -0.09765625 17.67578125 C-0.09443359 16.64775391 -0.09121094 15.61972656 -0.08789062 14.56054688 C-0.07951172 13.48869141 -0.07113281 12.41683594 -0.0625 11.3125 C-0.05798828 10.22904297 -0.05347656 9.14558594 -0.04882812 8.02929688 C-0.03703743 5.35280915 -0.02058063 2.67643223 0 0 Z " fill="#242524" transform="translate(209,307)"/>
<path d="M0 0 C6.75 -0.125 6.75 -0.125 9 1 C9.85302878 2.69019584 10.62162967 4.42335977 11.34765625 6.171875 C11.78787109 7.22890625 12.22808594 8.2859375 12.68164062 9.375 C13.13732422 10.48875 13.59300781 11.6025 14.0625 12.75 C14.52205078 13.84828125 14.98160156 14.9465625 15.45507812 16.078125 C19.1667852 25.06034712 19.1667852 25.06034712 20 30 C17.36 30 14.72 30 12 30 C11.34 27.69 10.68 25.38 10 23 C6.37 22.67 2.74 22.34 -1 22 C-1.309375 23.134375 -1.61875 24.26875 -1.9375 25.4375 C-3 29 -3 29 -4 30 C-6.33297433 30.04092937 -8.66705225 30.04241723 -11 30 C-10.53775304 23.06629563 -7.77019365 17.33962445 -4.9375 11.0625 C-4.46505859 9.99708984 -3.99261719 8.93167969 -3.50585938 7.83398438 C-2.34498424 5.21908382 -1.1762081 2.60803058 0 0 Z M3 12 C2.67 13.32 2.34 14.64 2 16 C3.32 16 4.64 16 6 16 C5.67 14.68 5.34 13.36 5 12 C4.34 12 3.68 12 3 12 Z " fill="#232424" transform="translate(249,307)"/>
<path d="M0 0 C0 2.31 0 4.62 0 7 C-1.35544922 6.94779297 -1.35544922 6.94779297 -2.73828125 6.89453125 C-4.50751953 6.85392578 -4.50751953 6.85392578 -6.3125 6.8125 C-7.48425781 6.77769531 -8.65601563 6.74289062 -9.86328125 6.70703125 C-12.95980413 6.72668648 -12.95980413 6.72668648 -14.87109375 8.36328125 C-17.0028498 11.4539587 -17.12935171 14.16845329 -16.5625 17.8125 C-16.2840625 18.8953125 -16.2840625 18.8953125 -16 20 C-13.36 20.33 -10.72 20.66 -8 21 C-7.67 18.69 -7.34 16.38 -7 14 C-4.69 14 -2.38 14 0 14 C0 18.62 0 23.24 0 28 C-3.30335066 29.10111689 -5.89832137 29.20226528 -9.375 29.25 C-10.49648437 29.27578125 -11.61796875 29.3015625 -12.7734375 29.328125 C-17.55800686 28.84155862 -20.05548073 26.99557436 -23.3125 23.5625 C-25.77362622 18.36678908 -25.75985979 13.65242636 -25 8 C-23.26141451 4.18848567 -21.78176637 2.57202417 -18.4375 0.125 C-12.47698626 -1.82571359 -6.0313287 -1.75559803 0 0 Z " fill="#242524" transform="translate(203,308)"/>
<path d="M0 0 C1.42119141 -0.00386719 1.42119141 -0.00386719 2.87109375 -0.0078125 C5.26390459 0.11026525 7.27586153 0.44387365 9.5625 1.125 C9.5625 3.435 9.5625 5.745 9.5625 8.125 C8.73105469 8.11339844 7.89960938 8.10179687 7.04296875 8.08984375 C5.41294922 8.07630859 5.41294922 8.07630859 3.75 8.0625 C2.13158203 8.04509766 2.13158203 8.04509766 0.48046875 8.02734375 C-2.50262169 7.98875234 -2.50262169 7.98875234 -5.4375 9.125 C-6.98336876 12.21673752 -6.73109521 14.71929552 -6.4375 18.125 C-4.88031523 20.45882384 -4.88031523 20.45882384 -2.4375 22.125 C0.60690135 22.60695275 0.60690135 22.60695275 3.8125 22.375 C5.42898437 22.32085937 5.42898437 22.32085937 7.078125 22.265625 C7.89796875 22.21921875 8.7178125 22.1728125 9.5625 22.125 C9.75 25 9.75 25 9.5625 28.125 C4.8880605 31.241293 0.03794071 30.59577202 -5.4375 30.125 C-9.68860273 28.63338501 -12.17858809 27.04837333 -14.4375 23.125 C-16.10225521 17.59521871 -16.19380055 12.16701149 -14.1875 6.75 C-10.49067279 1.20475918 -6.47821193 -0.01757995 0 0 Z " fill="#222423" transform="translate(22.4375,263.875)"/>
<path d="M0 0 C8.90719089 4.45359544 12.86632789 14.15928087 16.08984375 23.15234375 C17.39801399 27.24528839 18.17193631 30.74948119 18.25 35.0625 C18.27578125 35.91972656 18.3015625 36.77695313 18.328125 37.66015625 C18 40 18 40 16.671875 41.80859375 C15 43 15 43 12 43 C11.82726562 42.319375 11.65453125 41.63875 11.4765625 40.9375 C8.84995298 31.87690202 4.34737873 24.70850819 -0.796875 16.88427734 C-2.6475989 13.9857613 -4.32252425 11.00159433 -6 8 C-4.02 5.36 -2.04 2.72 0 0 Z " fill="#222423" transform="translate(203,115)"/>
<path d="M0 0 C1.55074219 0.00966797 1.55074219 0.00966797 3.1328125 0.01953125 C5.875 0.1875 5.875 0.1875 8.875 1.1875 C8.875 3.8275 8.875 6.4675 8.875 9.1875 C8.11574219 9.10371094 7.35648437 9.01992188 6.57421875 8.93359375 C5.08341797 8.78083984 5.08341797 8.78083984 3.5625 8.625 C2.57636719 8.52058594 1.59023438 8.41617187 0.57421875 8.30859375 C-2.22430347 8.02147473 -2.22430347 8.02147473 -5.125 9.1875 C-6.38737731 11.71225462 -6.22356404 13.49950466 -6.1875 16.3125 C-6.17396484 17.67761719 -6.17396484 17.67761719 -6.16015625 19.0703125 C-6.14855469 19.76898438 -6.13695312 20.46765625 -6.125 21.1875 C-0.89754141 22.3938366 3.64028314 21.94362577 8.875 21.1875 C9.0625 24.5625 9.0625 24.5625 8.875 28.1875 C5.54598317 30.40684455 4.38706363 30.45879898 0.5 30.4375 C-0.43585938 30.44265625 -1.37171875 30.4478125 -2.3359375 30.453125 C-7.53980775 29.95751831 -10.75850848 28.15515072 -14.125 24.1875 C-15.92485133 18.787946 -16.13247189 12.37417738 -14.40625 6.9140625 C-12.97411832 4.17684308 -11.62110661 2.44369322 -8.86328125 1.01953125 C-5.77462208 0.0810371 -3.22317068 -0.04442967 0 0 Z " fill="#222423" transform="translate(338.125,263.8125)"/>
<path d="M0 0 C2.536875 -0.061875 5.07375 -0.12375 7.6875 -0.1875 C8.47729248 -0.21481201 9.26708496 -0.24212402 10.08081055 -0.27026367 C14.60318145 -0.32344113 17.43303549 0.18325747 21 3 C22.73631636 6.47263273 22.60190402 10.21193013 22 14 C19.81840855 16.75569447 18.12822506 18.43588747 15 20 C11.9375 20.125 11.9375 20.125 9 20 C8 19 8 19 7.9375 15.9375 C7.958125 14.968125 7.97875 13.99875 8 13 C9.65 12.34 11.3 11.68 13 11 C13 10.01 13 9.02 13 8 C10.03 7.505 10.03 7.505 7 7 C7 14.59 7 22.18 7 30 C4.69 30 2.38 30 0 30 C0 20.1 0 10.2 0 0 Z " fill="#222423" transform="translate(284,264)"/>
<path d="M0 0 C2.536875 -0.061875 5.07375 -0.12375 7.6875 -0.1875 C8.47729248 -0.21481201 9.26708496 -0.24212402 10.08081055 -0.27026367 C14.61476924 -0.32357739 17.43712454 0.16424198 21 3 C23.4915904 6.7373856 23.45793285 8.57331583 23 13 C20.86377679 17.08668787 18.52930814 18.36884753 14.3125 19.8125 C10.3038674 21 10.3038674 21 9 21 C8.67 18.69 8.34 16.38 8 14 C8.969375 13.5875 9.93875 13.175 10.9375 12.75 C14.12260099 11.35100832 14.12260099 11.35100832 14.875 8.8125 C14.91625 8.214375 14.9575 7.61625 15 7 C12.36 7 9.72 7 7 7 C7 14.59 7 22.18 7 30 C4.69 30 2.38 30 0 30 C0 20.1 0 10.2 0 0 Z " fill="#232524" transform="translate(62,307)"/>
<path d="M0 0 C1.40429047 0.01005265 2.80858793 0.01917445 4.21289062 0.02734375 C7.62127485 0.05076907 11.029295 0.08357254 14.4375 0.125 C11.01034005 3.78906255 8.01634179 5.22871126 3.25 6.5625 C2.20138794 6.87489624 2.20138794 6.87489624 1.1315918 7.19360352 C-2.54699081 8.28362972 -6.24135113 9.3151987 -9.9375 10.34375 C-18.07059705 12.6310689 -25.52979842 15.21638607 -33.12109375 18.98828125 C-35.5625 20.125 -35.5625 20.125 -37.5625 20.125 C-37.26120114 14.09902276 -34.493303 10.44334695 -30.5625 6.125 C-21.89248398 -1.19634686 -10.68817877 -0.13387061 0 0 Z " fill="#222323" transform="translate(126.5625,36.875)"/>
<path d="M0 0 C4.43744296 -0.05878606 8.87478373 -0.09385813 13.3125 -0.125 C14.55580078 -0.14175781 15.79910156 -0.15851562 17.08007812 -0.17578125 C37.66883152 -0.2838587 37.66883152 -0.2838587 45 6 C49.04834271 10.10488381 52 14.08623146 52 20 C48.20175267 18.87079133 44.7442617 17.40402765 41.1953125 15.671875 C33.81042577 12.28863897 26.09079716 10.42903831 18.23852539 8.44506836 C16.33759287 7.96104237 14.44022544 7.46308329 12.54296875 6.96484375 C11.42946045 6.6824585 10.31595215 6.40007324 9.16870117 6.10913086 C5.64917658 4.87720234 2.97786604 3.22926088 0 1 C0 0.67 0 0.34 0 0 Z " fill="#222423" transform="translate(195,37)"/>
<path d="M0 0 C6.01500461 2.80889366 11.10584739 6.94416806 14 13 C14.90260018 15.97383008 15.53344066 18.92906466 16 22 C17.32 22.33 18.64 22.66 20 23 C20 24.32 20 25.64 20 27 C18.68 27 17.36 27 16 27 C15.67 27.66 15.34 28.32 15 29 C15 28.34 15 27.68 15 27 C13.845 26.95875 12.69 26.9175 11.5 26.875 C5.12478755 26.08375023 1.02638001 22.08114704 -3.3125 17.625 C-5.70350404 13.90566038 -8 9.51011408 -8 5 C-9.32 4.67 -10.64 4.34 -12 4 C-12 2.68 -12 1.36 -12 0 C-8.21215875 -1.89392062 -4.00853872 -0.9219639 0 0 Z M-2 6 C-0.67474436 11.06006699 1.34390181 14.25887627 5 18 C7.6514482 19.39819512 7.6514482 19.39819512 10 20 C8.41316357 13.79691213 5.52196689 10.62526755 0.1875 7.1875 C-0.534375 6.795625 -1.25625 6.40375 -2 6 Z " fill="#2A2A1F" transform="translate(176,386)"/>
<path d="M0 0 C3.125 -0.5625 3.125 -0.5625 7 0 C9.76462465 2.96852322 13 6.80045287 13 11 C15.4042148 8.80995376 16.76283793 6.68733091 18.25 3.8125 C19.52734375 1.67578125 19.52734375 1.67578125 21 0 C24.8125 -0.5 24.8125 -0.5 28 0 C27.43571845 4.26689613 25.91947299 6.93268953 23.5625 10.5 C19.71526894 16.83847085 18.57872345 22.67737672 18 30 C15.36 30 12.72 30 10 30 C10.03222656 29.3915625 10.06445312 28.783125 10.09765625 28.15625 C9.99325756 20.26834867 7.16616052 14.96028061 3.15063477 8.39648438 C0 3.2442327 0 3.2442327 0 0 Z " fill="#232524" transform="translate(267,307)"/>
<path d="M0 0 C7.59 0 15.18 0 23 0 C23 2.31 23 4.62 23 7 C20.36 7 17.72 7 15 7 C15 14.59 15 22.18 15 30 C12.36 30 9.72 30 7 30 C7 22.41 7 14.82 7 7 C4.69 7 2.38 7 0 7 C0 4.69 0 2.38 0 0 Z " fill="#242525" transform="translate(117,264)"/>
<path d="M0 0 C1.10802886 3.32408657 0.88436178 4.30631731 0.0390625 7.60546875 C-0.29738281 8.95801758 -0.29738281 8.95801758 -0.640625 10.33789062 C-0.88296875 11.27826172 -1.1253125 12.21863281 -1.375 13.1875 C-3.9367044 23.24430105 -5.12661857 32.63888411 -5.5625 43 C-5.60568359 43.96550781 -5.64886719 44.93101562 -5.69335938 45.92578125 C-5.79841713 48.28374425 -5.90056914 50.64179416 -6 53 C-10.73617295 49.59849063 -11.89687366 46.69149242 -13 41 C-14.14045932 28.05424553 -12.13177262 13.60865197 -3.56640625 3.26953125 C-2.1875 1.875 -2.1875 1.875 0 0 Z " fill="#232423" transform="translate(142,133)"/>
<path d="M0 0 C2.31 0 4.62 0 7 0 C7.33 7.59 7.66 15.18 8 23 C11.3 23 14.6 23 18 23 C18 25.31 18 27.62 18 30 C12.06 30 6.12 30 0 30 C0 20.1 0 10.2 0 0 Z " fill="#232524" transform="translate(211,264)"/>
<path d="M0 0 C8.39612487 3.79224973 8.39612487 3.79224973 10 7 C10.88781593 13.73471796 9.79900233 19.64312867 7.6875 26 C7.47464355 26.64670654 7.26178711 27.29341309 7.04248047 27.9597168 C5.86750788 31.27947368 4.78663678 33.77722814 2 36 C2.88349515 28.42718447 2.88349515 28.42718447 3.5625 25.9375 C4.61518412 21.27561318 4.11502005 16.59945771 3 12 C0.03 11.67 -2.94 11.34 -6 11 C-6.33 10.01 -6.66 9.02 -7 8 C-8.65 8 -10.3 8 -12 8 C-12 6.68 -12 5.36 -12 4 C-8.04193493 0.6073728 -5.18544432 -0.91507841 0 0 Z " fill="#EB0B0C" transform="translate(146,72)"/>
<path d="M0 0 C1.0209375 0.8353125 1.0209375 0.8353125 2.0625 1.6875 C2.0625 3.0075 2.0625 4.3275 2.0625 5.6875 C-0.4125 5.1925 -0.4125 5.1925 -2.9375 4.6875 C-3.370625 5.6465625 -3.370625 5.6465625 -3.8125 6.625 C-4.9375 8.6875 -4.9375 8.6875 -6.9375 9.6875 C-9.2704866 9.72772391 -11.60456666 9.73070247 -13.9375 9.6875 C-15.36900464 18.2937749 -14.28944842 25.32944602 -11.9375 33.6875 C-12.5975 33.6875 -13.2575 33.6875 -13.9375 33.6875 C-14.75354999 31.7723421 -15.56520632 29.85531166 -16.375 27.9375 C-16.82746094 26.87015625 -17.27992188 25.8028125 -17.74609375 24.703125 C-19.67146307 19.82973118 -20.1209532 15.89883386 -20.1875 10.625 C-20.21328125 9.39652344 -20.2390625 8.16804688 -20.265625 6.90234375 C-19.9375 3.6875 -19.9375 3.6875 -18.625 1.86328125 C-12.22967565 -2.59272021 -7.0821927 -3.16438397 0 0 Z " fill="#ED0A09" transform="translate(200.9375,74.3125)"/>
<path d="M0 0 C3.3 0 6.6 0 10 0 C10.87096774 24.25806452 10.87096774 24.25806452 6 34 C5.34 34 4.68 34 4 34 C0.18663542 22.51193942 -0.14264805 12.02998594 0 0 Z " fill="#242524" transform="translate(163,156)"/>
<path d="M0 0 C0.81791016 0.33386719 1.63582031 0.66773438 2.47851562 1.01171875 C4.4706112 1.82719647 6.45492926 2.66163136 8.4375 3.5 C8.4375 4.16 8.4375 4.82 8.4375 5.5 C5.44608901 6.99570549 2.70326769 6.6316632 -0.625 6.625 C-1.30747803 6.6252417 -1.98995605 6.6254834 -2.69311523 6.62573242 C-6.24059468 6.60425807 -9.63161493 6.41457962 -13.125 5.8125 C-19.36039045 4.92515597 -25.55099772 6.98643541 -31.5625 8.5 C-30.73224035 3.45289531 -27.52147549 1.38852289 -23.5625 -1.5 C-15.90631471 -5.93252833 -7.55450743 -3.22076942 0 0 Z " fill="#222322" transform="translate(141.5625,23.5)"/>
<path d="M0 0 C3.83637987 2.178877 6.17742235 4.76676337 8.6875 8.375 C8.6875 9.035 8.6875 9.695 8.6875 10.375 C7.6975 10.14683594 6.7075 9.91867188 5.6875 9.68359375 C-3.20586905 7.63877498 -3.20586905 7.63877498 -12.27514648 8.04589844 C-14.33745189 8.37903058 -16.26030902 8.45811448 -18.34765625 8.453125 C-19.44509155 8.45252075 -19.44509155 8.45252075 -20.56469727 8.4519043 C-21.67735962 8.44477417 -21.67735962 8.44477417 -22.8125 8.4375 C-23.54460693 8.43339111 -24.27671387 8.42928223 -25.03100586 8.42504883 C-26.79153707 8.41233816 -28.55202792 8.39422846 -30.3125 8.375 C-30.3125 7.385 -30.3125 6.395 -30.3125 5.375 C-10.15623924 -4.42804494 -10.15623924 -4.42804494 0 0 Z " fill="#222323" transform="translate(217.3125,21.625)"/>
<path d="M0 0 C0.66 0 1.32 0 2 0 C15.1106417 21.89259172 15.1106417 21.89259172 13 34 C10.625 37.1875 10.625 37.1875 8 39 C7.34 39 6.68 39 6 39 C5.93006836 38.45287354 5.86013672 37.90574707 5.78808594 37.34204102 C4.41579479 26.77738483 2.86695121 16.3889669 0.18261719 6.06860352 C-0.24858019 4.38812923 -0.63002423 2.69500529 -1 1 C-0.67 0.67 -0.34 0.34 0 0 Z " fill="#232423" transform="translate(194,134)"/>
<path d="M0 0 C2.31 0 4.62 0 7 0 C8.40912096 2.81824192 8.11183553 5.17251282 8.09765625 8.3203125 C8.09443359 9.57714844 8.09121094 10.83398438 8.08789062 12.12890625 C8.07951172 13.44761719 8.07113281 14.76632812 8.0625 16.125 C8.05748489 17.46484211 8.05292201 18.804686 8.04882812 20.14453125 C8.03701086 23.42973206 8.02053617 26.71484397 8 30 C5.36 30 2.72 30 0 30 C0 20.1 0 10.2 0 0 Z " fill="#232424" transform="translate(310,264)"/>
<path d="M0 0 C2.31 0 4.62 0 7 0 C8.38308781 2.76617563 8.11210196 5.01018 8.09765625 8.1015625 C8.09443359 9.31328125 8.09121094 10.525 8.08789062 11.7734375 C8.07951172 13.04445313 8.07113281 14.31546875 8.0625 15.625 C8.05798828 16.90375 8.05347656 18.1825 8.04882812 19.5 C8.03701203 22.66671292 8.02053815 25.83333356 8 29 C6 30 6 30 0 30 C0 20.1 0 10.2 0 0 Z " fill="#232524" transform="translate(106,264)"/>
<path d="M0 0 C2.31 0 4.62 0 7 0 C8.23797861 4.80453605 8.14774283 9.51367674 8.125 14.4375 C8.12886719 15.27087891 8.13273438 16.10425781 8.13671875 16.96289062 C8.12966873 21.42202587 7.89916791 25.61120425 7 30 C4.69 30 2.38 30 0 30 C0 20.1 0 10.2 0 0 Z " fill="#242525" transform="translate(234,264)"/>
<path d="M0 0 C0.66 0 1.32 0 2 0 C2.0093457 0.58265625 2.01869141 1.1653125 2.02832031 1.765625 C2.2580924 13.22719729 2.93747846 23.85001522 6.16015625 34.8828125 C7 38 7 38 7 42 C3.99851864 41.67841271 3.01794208 41.01846979 0.875 38.8125 C-3.10111849 32.84832227 -3.35399964 27.19859516 -3.3125 20.25 C-3.31121094 19.36344727 -3.30992187 18.47689453 -3.30859375 17.56347656 C-3.21710887 11.34021781 -2.54285176 5.7516885 0 0 Z " fill="#232424" transform="translate(153,157)"/>
<path d="M0 0 C7.07482922 0.08085519 11.19940896 3.4756159 16.2890625 8.04296875 C20.61095917 12.52454141 22.12711376 17.45219771 23.5 23.4375 C21.1875 23.734375 21.1875 23.734375 18.5 23.4375 C16.875 21.390625 16.875 21.390625 15.5 18.6875 C13.28246687 14.65147569 11.43463442 11.9896953 7.5 9.4375 C6.51 8.7775 5.52 8.1175 4.5 7.4375 C2.22087062 6.98355448 2.22087062 6.98355448 -0.1875 6.8125 C-1.39986328 6.70035156 -1.39986328 6.70035156 -2.63671875 6.5859375 C-3.25160156 6.53695313 -3.86648437 6.48796875 -4.5 6.4375 C-4.88218767 4.78135343 -5.21395102 3.11292976 -5.5 1.4375 C-3.89501935 -0.16748065 -2.22074649 0.11309357 0 0 Z " fill="#11833A" transform="translate(223.5,384.5625)"/>
<path d="M0 0 C5.53239756 2.82265181 10.18523034 6.01491752 14 11 C14.81099866 14.40619436 14.26674053 15.52450601 12.5625 18.5625 C12.046875 19.366875 11.53125 20.17125 11 21 C10.09782952 23.88959342 9.84543644 26.5802418 9.75390625 29.59765625 C9.72240479 30.47679688 9.69090332 31.3559375 9.65844727 32.26171875 C9.62678467 33.18597656 9.59512207 34.11023438 9.5625 35.0625 C8.77137387 54.3258455 8.77137387 54.3258455 5 62 C3.515 62.495 3.515 62.495 2 63 C2.19335938 62.31035156 2.38671875 61.62070313 2.5859375 60.91015625 C2.84632813 59.97042969 3.10671875 59.03070313 3.375 58.0625 C3.63023437 57.14597656 3.88546875 56.22945312 4.1484375 55.28515625 C4.42945313 54.20105469 4.71046875 53.11695313 5 52 C5.17644043 51.3311377 5.35288086 50.66227539 5.53466797 49.97314453 C6.9539085 44.19799597 7.38538874 38.68798696 7.375 32.75 C7.37411377 31.8312207 7.37322754 30.91244141 7.37231445 29.96582031 C7.23991602 22.31762644 5.82289165 16.13311331 3 9 C2.40743862 7.23223319 1.82310863 5.46166881 1.25 3.6875 C0.8375 2.470625 0.425 1.25375 0 0 Z " fill="#0344A8" transform="translate(280,78)"/>
<path d="M0 0 C6.01500461 2.80889366 11.10584739 6.94416806 14 13 C14.90260018 15.97383008 15.53344066 18.92906466 16 22 C14.35 22 12.7 22 11 22 C10.18432826 20.56429734 9.37257907 19.12636566 8.5625 17.6875 C8.11003906 16.88699219 7.65757812 16.08648437 7.19140625 15.26171875 C6 13 6 13 5 10 C3.20067421 8.93283296 3.20067421 8.93283296 1 8 C0.21625 7.46375 -0.5675 6.9275 -1.375 6.375 C-4.4827108 4.74715148 -6.54027411 4.8462344 -10 5 C-10.66 4.67 -11.32 4.34 -12 4 C-12 2.68 -12 1.36 -12 0 C-8.21215875 -1.89392062 -4.00853872 -0.9219639 0 0 Z " fill="#E8A52A" transform="translate(176,386)"/>
<path d="M0 0 C2.90408342 3.87211123 3.85079464 6.40317854 5 11 C4.34 11 3.68 11 3 11 C3 12.32 3 13.64 3 15 C3.66 15.33 4.32 15.66 5 16 C2.07120638 24.87733717 -1.80028629 32.10507505 -10.375 36.5 C-14 38 -14 38 -15 38 C-15.5625 35.4375 -15.5625 35.4375 -15 32 C-13.13671875 30.359375 -13.13671875 30.359375 -10.75 28.6875 C-4.82978213 24.48935808 -2.9372653 19.82716663 -1.25 12.9375 C-1.1675 12.298125 -1.085 11.65875 -1 11 C-0.34 11 0.32 11 1 11 C0.67 7.37 0.34 3.74 0 0 Z " fill="#1569AA" transform="translate(161,375)"/>
<path d="M0 0 C1.65 0 3.3 0 5 0 C5.3403125 0.73605469 5.680625 1.47210938 6.03125 2.23046875 C8.71393917 7.63152114 11.07432035 12.327463 16.5 15.2734375 C21.86215871 16.83181487 27.48185359 16.34875925 33 16 C33 16.66 33 17.32 33 18 C28.05 18.33 23.1 18.66 18 19 C23.94 19.99 23.94 19.99 30 21 C30 21.33 30 21.66 30 22 C20.74023697 21.9756001 12.89497152 21.89497152 6 15 C2.06565453 10.30539454 0.38007987 6.08127789 0 0 Z " fill="#D21B49" transform="translate(223,391)"/>
<path d="M0 0 C2 1 2 1 3.078125 4.0234375 C4.16473956 8.19731579 4.5147481 12.32975562 4.75 16.625 C4.80542969 17.36234375 4.86085937 18.0996875 4.91796875 18.859375 C5.16761767 23.0807113 5.06275405 26.26641516 3 30 C-1.32432432 34 -1.32432432 34 -4 34 C-3.86722656 33.20980469 -3.73445312 32.41960937 -3.59765625 31.60546875 C-2.31826408 23.4341684 -1.65103557 15.39616308 -1.34204102 7.13549805 C-1.09800794 1.09800794 -1.09800794 1.09800794 0 0 Z " fill="#242524" transform="translate(182,157)"/>
<path d="M0 0 C4.07076262 2.73435675 6.62261863 5.75508854 8.99609375 10.02734375 C8.99609375 10.68734375 8.99609375 11.34734375 8.99609375 12.02734375 C5.47273561 10.94323355 2.22830784 9.65646437 -1.06640625 8.02734375 C-6.79187444 5.39990287 -12.79654777 4.7564925 -19.00390625 4.02734375 C-13.3000694 -1.9848086 -7.77413299 -3.77340958 0 0 Z " fill="#232423" transform="translate(145.00390625,8.97265625)"/>
<path d="M0 0 C3.0625 2.5625 3.0625 2.5625 5 5 C4.21238281 5.07476563 3.42476562 5.14953125 2.61328125 5.2265625 C-5.22735798 6.17300653 -11.40238132 8.23315214 -18.41796875 11.85546875 C-19.27003906 12.23316406 -20.12210938 12.61085938 -21 13 C-21.66 12.67 -22.32 12.34 -23 12 C-20.25373627 6.39762199 -17.47214766 3.07252839 -12 0 C-7.83133827 -1.38955391 -4.23727239 -1.12053963 0 0 Z " fill="#222323" transform="translate(205,8)"/>
<path d="M0 0 C1.65 0 3.3 0 5 0 C6.40359999 2.80719999 5.64935483 4.84678659 4.8515625 7.77734375 C2.33573268 14.3438904 -2.76374151 19.79118691 -9 23 C-12.4375 23.8125 -12.4375 23.8125 -15 24 C-15 23.34 -15 22.68 -15 22 C-14.0925 21.731875 -13.185 21.46375 -12.25 21.1875 C-9.28528037 20.10423706 -7.3830246 19.01640543 -5 17 C-5.66 16.67 -6.32 16.34 -7 16 C-7 16.66 -7 17.32 -7 18 C-10.96 18.495 -10.96 18.495 -15 19 C-13.45620382 17.97080255 -11.9083859 16.94515908 -10.31640625 15.9921875 C-4.15272697 12.06610225 -1.59640365 7.02730626 0 0 Z " fill="#1A7F3F" transform="translate(241,412)"/>
<path d="M0 0 C0.3125 2.25 0.3125 2.25 0 5 C-2.1875 7 -2.1875 7 -5 9 C-9.12351608 12.63262131 -11.43320401 15.69030248 -13 21 C-12.98415974 26.06096357 -12.14868888 31.07704767 -11 36 C-11.66 36 -12.32 36 -13 36 C-15.41647483 31.30024187 -15.23233802 27.01896834 -15.125 21.875 C-15.11597656 21.06417969 -15.10695312 20.25335938 -15.09765625 19.41796875 C-15.08028323 17.91644364 -15.05878712 16.41495619 -15.03173828 14.91357422 C-15.00457616 13.27590722 -15 11.63789224 -15 10 C-11.49720907 4.53465244 -6.79654684 0 0 0 Z " fill="#E4A62E" transform="translate(160,386)"/>
<path d="M0 0 C1.79206547 0.14084796 3.58364917 0.28783701 5.375 0.4375 C6.87160156 0.55931641 6.87160156 0.55931641 8.3984375 0.68359375 C11 1 11 1 13 2 C13 3.32 13 4.64 13 6 C10.525 5.505 10.525 5.505 8 5 C7.34 6.32 6.68 7.64 6 9 C-3.41002278 9.18451025 -3.41002278 9.18451025 -8 8 C-7.67 6.35 -7.34 4.7 -7 3 C-6.21625 3.061875 -5.4325 3.12375 -4.625 3.1875 C-3.75875 3.125625 -2.8925 3.06375 -2 3 C-1.34 2.01 -0.68 1.02 0 0 Z " fill="#F00808" transform="translate(190,74)"/>
<path d="M0 0 C0.99 0.33 1.98 0.66 3 1 C1.57868897 3.84262206 -0.18671989 4.59335994 -3 6 C-5.8125 6.1875 -5.8125 6.1875 -8 6 C-8 6.66 -8 7.32 -8 8 C-14.28214286 9.28206997 -18.86230889 8.85043322 -24.4375 5.5625 C-24.953125 5.046875 -25.46875 4.53125 -26 4 C-26 3.01 -26 2.02 -26 1 C-24.31390625 1.24556641 -24.31390625 1.24556641 -22.59375 1.49609375 C-17.88279524 2.0849631 -13.24126159 2.11269251 -8.5 2.0625 C-7.26636719 2.05573242 -7.26636719 2.05573242 -6.0078125 2.04882812 C-4.00517604 2.03718489 -2.00257773 2.01925556 0 2 C0 1.34 0 0.68 0 0 Z " fill="#078834" transform="translate(234,428)"/>
<path d="M0 0 C0.66 0.33 1.32 0.66 2 1 C0.7934375 2.175625 0.7934375 2.175625 -0.4375 3.375 C-2.98690417 5.71982856 -2.98690417 5.71982856 -4 8 C1.28 8 6.56 8 12 8 C12 8.33 12 8.66 12 9 C1.12654245 9.43933162 -8.89129645 9.68660706 -19 5 C-19.33 4.34 -19.66 3.68 -20 3 C-18.21142578 2.80083984 -18.21142578 2.80083984 -16.38671875 2.59765625 C-14.82029322 2.41944017 -13.25388802 2.24104544 -11.6875 2.0625 C-10.90181641 1.97548828 -10.11613281 1.88847656 -9.30664062 1.79882812 C-8.54931641 1.71181641 -7.79199219 1.62480469 -7.01171875 1.53515625 C-6.31522217 1.456604 -5.61872559 1.37805176 -4.90112305 1.29711914 C-2.78351766 1.02003217 -2.78351766 1.02003217 0 0 Z " fill="#E9100F" transform="translate(147,215)"/>
<path d="M0 0 C0.67578125 1.671875 0.67578125 1.671875 1 4 C-0.14453125 6.578125 -0.14453125 6.578125 -1.8125 9.25 C-2.35519531 10.14203125 -2.89789063 11.0340625 -3.45703125 11.953125 C-3.96621094 12.62859375 -4.47539062 13.3040625 -5 14 C-5.66 14 -6.32 14 -7 14 C-7.10054687 14.54527344 -7.20109375 15.09054688 -7.3046875 15.65234375 C-9.22595069 23.35055583 -13.93256371 27.18475506 -20 32 C-20 28.20162407 -19.00699202 27.52272954 -16.5625 24.6875 C-10.21944547 17.01262974 -5.08257165 8.54577504 0 0 Z " fill="#DD1211" transform="translate(252,121)"/>
<path d="M0 0 C3.96842883 4.87034447 5.25249276 8.95779184 5.265625 15.2265625 C5.26820313 16.42410156 5.27078125 17.62164062 5.2734375 18.85546875 C5.26570313 20.09941406 5.25796875 21.34335938 5.25 22.625 C5.25773437 23.84574219 5.26546875 25.06648438 5.2734375 26.32421875 C5.2542216 35.30765209 5.07226429 44.78611845 1 53 C-0.485 53.495 -0.485 53.495 -2 54 C-1.80664062 53.31035156 -1.61328125 52.62070313 -1.4140625 51.91015625 C-1.15367187 50.97042969 -0.89328125 50.03070313 -0.625 49.0625 C-0.36976563 48.14597656 -0.11453125 47.22945312 0.1484375 46.28515625 C0.42945313 45.20105469 0.71046875 44.11695313 1 43 C1.17716553 42.33331299 1.35433105 41.66662598 1.53686523 40.97973633 C2.98220286 35.13042323 3.33448965 29.57446972 3.3125 23.5625 C3.32861328 22.68529297 3.34472656 21.80808594 3.36132812 20.90429688 C3.36550925 15.23050402 2.49830385 10.47433489 0.64526367 5.10913086 C0 3 0 3 0 0 Z " fill="#13438F" transform="translate(284,87)"/>
<path d="M0 0 C2.90408342 3.87211123 3.85079464 6.40317854 5 11 C4.34 11 3.68 11 3 11 C3 12.32 3 13.64 3 15 C3.66 15.33 4.32 15.66 5 16 C4.01 18.64 3.02 21.28 2 24 C1.34 23.67 0.68 23.34 0 23 C0 22.01 0 21.02 0 20 C-0.99 20 -1.98 20 -3 20 C-2.34 17.03 -1.68 14.06 -1 11 C-0.34 11 0.32 11 1 11 C0.67 7.37 0.34 3.74 0 0 Z " fill="#195F97" transform="translate(161,375)"/>
<path d="M0 0 C0.66 0.33 1.32 0.66 2 1 C1.38125 1.7425 0.7625 2.485 0.125 3.25 C-1.60437281 5.48801188 -2.86106661 7.43739987 -4 10 C-4.66 9.67 -5.32 9.34 -6 9 C-6.33 9.66 -6.66 10.32 -7 11 C-9.45037532 12.41367807 -12.0079212 13.41707084 -14.625 14.5 C-17.99551276 15.75619338 -17.99551276 15.75619338 -20 18 C-22.125 17.625 -22.125 17.625 -24 17 C-23.34515625 16.59910156 -22.6903125 16.19820312 -22.015625 15.78515625 C-10.41070671 8.69443883 -10.41070671 8.69443883 0 0 Z " fill="#DF1012" transform="translate(194,187)"/>
<path d="M0 0 C6.4098554 5.86043922 10.50452694 12.68175646 13 21 C12.5703125 23.234375 12.5703125 23.234375 12 25 C11.34865075 23.43979133 10.70417036 21.87671421 10.0625 20.3125 C9.70285156 19.44238281 9.34320313 18.57226562 8.97265625 17.67578125 C8.0429688 15.11820735 7.45837375 12.6778677 7 10 C3.9254644 10.7763932 3.9254644 10.7763932 2 13 C1.34 8.71 0.68 4.42 0 0 Z " fill="#D81718" transform="translate(260,69)"/>
<path d="M0 0 C0.33 0 0.66 0 1 0 C1.19448477 2.12437212 1.38038289 4.24953191 1.5625 6.375 C1.66691406 7.55835938 1.77132813 8.74171875 1.87890625 9.9609375 C2 13 2 13 1 15 C0.34 15 -0.32 15 -1 15 C-1 15.99 -1 16.98 -1 18 C0.32 18.33 1.64 18.66 3 19 C0.69 21.64 -1.62 24.28 -4 27 C-4.33 26.01 -4.66 25.02 -5 24 C-3.68 23.34 -2.36 22.68 -1 22 C-1 21.01 -1 20.02 -1 19 C-2.32 20.32 -3.64 21.64 -5 23 C-5.99 22.67 -6.98 22.34 -8 22 C-6.76302083 20.56770833 -5.52604167 19.13541667 -4.2890625 17.703125 C-1.33398503 13.79884082 -0.69332308 10.6309539 -0.375 5.75 C-0.30023438 4.67234375 -0.22546875 3.5946875 -0.1484375 2.484375 C-0.09945313 1.66453125 -0.05046875 0.8446875 0 0 Z " fill="#CB1C4A" transform="translate(268,382)"/>
<path d="M0 0 C0.33 0.66 0.66 1.32 1 2 C1.66 2 2.32 2 3 2 C3 1.34 3 0.68 3 0 C3.66 0.33 4.32 0.66 5 1 C5.34375 2.96875 5.34375 2.96875 5.5 5.5 C5.89565485 10.49244483 6.82301493 15.13512838 8 20 C7.34 20 6.68 20 6 20 C2.98348917 13.32137824 0.42465706 7.36072234 0 0 Z " fill="#D31E1D" transform="translate(181,88)"/>
<path d="M0 0 C2.01407247 2.56336497 3.62173502 5.04657505 5 8 C5.33 8.66 5.66 9.32 6 10 C5.31690217 12.21646512 4.52962427 14.40144308 3.6875 16.5625 C3.23761719 17.73941406 2.78773438 18.91632813 2.32421875 20.12890625 C1 23 1 23 -1 24 C-0.11650485 16.42718447 -0.11650485 16.42718447 0.5625 13.9375 C1.61518412 9.27561318 1.11502005 4.59945771 0 0 Z " fill="#D22223" transform="translate(149,84)"/>
<path d="M0 0 C0 4.18462698 -2.2651378 6.35204256 -4.75 9.5 C-5.41515625 10.37205078 -5.41515625 10.37205078 -6.09375 11.26171875 C-8.4691263 14.31477594 -10.75338995 16.8760495 -14 19 C-13.11917098 13.62694301 -13.11917098 13.62694301 -12 11 C-8.875 9 -8.875 9 -6 8 C-6 6.68 -6 5.36 -6 4 C-5.01 4 -4.02 4 -3 4 C-3 3.01 -3 2.02 -3 1 C-2.01 0.67 -1.02 0.34 0 0 Z " fill="#DB1215" transform="translate(256,154)"/>
<path d="M0 0 C0.33 0 0.66 0 1 0 C1 4.62 1 9.24 1 14 C0.34 14 -0.32 14 -1 14 C-1 15.98 -1 17.96 -1 20 C-1.66 20 -2.32 20 -3 20 C-3 20.99 -3 21.98 -3 23 C-2.01 23.33 -1.02 23.66 0 24 C-4.75 28 -4.75 28 -7 28 C-6.81824219 27.47792969 -6.63648438 26.95585938 -6.44921875 26.41796875 C-3.48305417 17.73243042 -0.86455535 9.16428666 0 0 Z " fill="#D91315" transform="translate(262,88)"/>
<path d="M0 0 C1.32 0 2.64 0 4 0 C4.9375 2.5 4.9375 2.5 5 6 C2.96679484 8.96996983 0.56307274 11.48166917 -2 14 C-3.22376937 10.3286919 -2.61664584 9.40346492 -1 6 C-0.34 5.01 0.32 4.02 1 3 C0.67 2.01 0.34 1.02 0 0 Z " fill="#0D67B3" transform="translate(157,395)"/>
<path d="M0 0 C1.65 0 3.3 0 5 0 C6.11672285 3.35016854 5.92467164 3.92559562 4.6875 7.0625 C4.42324219 7.75472656 4.15898437 8.44695312 3.88671875 9.16015625 C3 11 3 11 1 13 C1 10.69 1 8.38 1 6 C0.01 6.99 -0.98 7.98 -2 9 C-1.34 6.03 -0.68 3.06 0 0 Z " fill="#E4A432" transform="translate(186,413)"/>
<path d="M0 0 C0.88429687 -0.02578125 1.76859375 -0.0515625 2.6796875 -0.078125 C5.125 0.25 5.125 0.25 8.125 3.25 C4.165 2.92 0.205 2.59 -3.875 2.25 C-3.875 2.91 -3.875 3.57 -3.875 4.25 C-1.9878125 4.12625 -1.9878125 4.12625 -0.0625 4 C2.08203125 3.859375 2.08203125 3.859375 4.125 4.25 C5.115 5.57 6.105 6.89 7.125 8.25 C1.185 7.26 1.185 7.26 -4.875 6.25 C-5.205 4.6 -5.535 2.95 -5.875 1.25 C-4.21733202 -0.40766798 -2.27153595 0.03950497 0 0 Z " fill="#2D6E3B" transform="translate(223.875,384.75)"/>
<path d="M0 0 C0.66 0 1.32 0 2 0 C2.33 0.99 2.66 1.98 3 3 C2.67 3.66 2.34 4.32 2 5 C2.66 5.33 3.32 5.66 4 6 C3.67 7.65 3.34 9.3 3 11 C1.35 11 -0.3 11 -2 11 C-2.95465783 8.83032311 -3.14401212 7.43671207 -2.3984375 5.17578125 C-1.64129615 3.4315257 -0.82390802 1.71372869 0 0 Z " fill="#2D291E" transform="translate(171,375)"/>
<path d="M0 0 C1.32 0 2.64 0 4 0 C6.48063781 9.41002278 6.48063781 9.41002278 5 14 C3 13 3 13 2.21875 10.75 C1.5 8 1.5 8 0.78125 5.25 C0.2328113 2.82546793 0.2328113 2.82546793 -2 2 C-1.34 2 -0.68 2 0 2 C0 1.34 0 0.68 0 0 Z " fill="#F40501" transform="translate(149,79)"/>
<path d="M0 0 C0.66 1.32 1.32 2.64 2 4 C2.99 2.68 3.98 1.36 5 0 C5.99 0.33 6.98 0.66 8 1 C7.07347299 2.17539996 6.13336613 3.34010577 5.1875 4.5 C4.40439453 5.47453125 4.40439453 5.47453125 3.60546875 6.46875 C2 8 2 8 -1 8 C-1.66 9.98 -2.32 11.96 -3 14 C-3.66 14 -4.32 14 -5 14 C-4.54857225 12.22739369 -4.08859477 10.4569632 -3.625 8.6875 C-3.36976563 7.70136719 -3.11453125 6.71523438 -2.8515625 5.69921875 C-2 3 -2 3 0 0 Z " fill="#1B8041" transform="translate(200,395)"/>
<path d="M0 0 C1.32 0.66 2.64 1.32 4 2 C3.125 6.75 3.125 6.75 2 9 C1.01 9 0.02 9 -1 9 C-1 9.66 -1 10.32 -1 11 C-1.99 11 -2.98 11 -4 11 C-3.21681311 7.08406554 -1.60820142 3.63593365 0 0 Z " fill="#107F3B" transform="translate(242,415)"/>
<path d="M0 0 C1.37168366 4.83483206 1.01558236 9.64921591 0.87304688 14.625 C0.80475492 19.1724408 1.26409342 22.71128963 3 27 C-1.95701427 22.71894222 -2.54138014 17.02227433 -3.046875 10.8046875 C-2.97737105 6.6460343 -1.76421641 3.74013878 0 0 Z " fill="#DAA949" transform="translate(143,399)"/>
<path d="M0 0 C1.32 0.66 2.64 1.32 4 2 C3.67 2.33 3.34 2.66 3 3 C3.5053125 3.40992188 4.010625 3.81984375 4.53125 4.2421875 C5.1809375 4.78101563 5.830625 5.31984375 6.5 5.875 C7.1496875 6.40867187 7.799375 6.94234375 8.46875 7.4921875 C8.9740625 7.98976563 9.479375 8.48734375 10 9 C10 9.66 10 10.32 10 11 C4.59510481 9.47987323 1.01507372 5.72614782 -3 2 C-2.01 1.34 -1.02 0.68 0 0 Z " fill="#1E211F" transform="translate(175,401)"/>
<path d="M0 0 C5.67114906 2.8934434 9.68756188 6.33365358 14 11 C13.67 11.66 13.34 12.32 13 13 C12.60167969 12.57847656 12.20335937 12.15695313 11.79296875 11.72265625 C11.26316406 11.17480469 10.73335938 10.62695312 10.1875 10.0625 C9.40439453 9.24458984 9.40439453 9.24458984 8.60546875 8.41015625 C6.94187802 6.76480908 6.94187802 6.76480908 4 6 C3.67 6.99 3.34 7.98 3 9 C2.01 6.03 1.02 3.06 0 0 Z " fill="#1D498D" transform="translate(280,78)"/>
<path d="M0 0 C1.33597652 0.80814651 2.668725 1.62163181 4 2.4375 C4.7425 2.88996094 5.485 3.34242188 6.25 3.80859375 C6.8275 4.20175781 7.405 4.59492188 8 5 C8 5.33 8 5.66 8 6 C6.02 6.33 4.04 6.66 2 7 C2.33 7.66 2.66 8.32 3 9 C-0.91402949 7.73058503 -2.79072873 6.48832306 -5 3 C-2.525 3.495 -2.525 3.495 0 4 C0 2.68 0 1.36 0 0 Z " fill="#E9A933" transform="translate(151,424)"/>
<path d="M0 0 C1.14898802 4.59595209 0.62202409 6.62053496 -1 11 C-1.99 11.66 -2.98 12.32 -4 13 C-4.66 11.68 -5.32 10.36 -6 9 C-4.02 6.03 -2.04 3.06 0 0 Z " fill="#F5AD19" transform="translate(187,418)"/>
<path d="M0 0 C1.32 0.66 2.64 1.32 4 2 C3.01 2.495 3.01 2.495 2 3 C2.78130071 5.49552484 2.78130071 5.49552484 4 8 C4.99 8.33 5.98 8.66 7 9 C7 10.98 7 12.96 7 15 C6.443125 14.2575 5.88625 13.515 5.3125 12.75 C3.05106174 10.06072207 0.80256904 8.10192678 -2 6 C-2.763125 5.4225 -3.52625 4.845 -4.3125 4.25 C-4.869375 3.8375 -5.42625 3.425 -6 3 C-3.69 3.33 -1.38 3.66 1 4 C0.67 2.68 0.34 1.36 0 0 Z " fill="#1867A8" transform="translate(151,365)"/>
<path d="M0 0 C-2.89066059 9.59453303 -2.89066059 9.59453303 -6 13 C-6.33 10.36 -6.66 7.72 -7 5 C-6.34 5 -5.68 5 -5 5 C-4.87625 4.360625 -4.7525 3.72125 -4.625 3.0625 C-4.41875 2.381875 -4.2125 1.70125 -4 1 C-2 0 -2 0 0 0 Z " fill="#0A4397" transform="translate(299,153)"/>
<path d="M0 0 C0.33 0.66 0.66 1.32 1 2 C-1.97 1.67 -4.94 1.34 -8 1 C-8.66 2.32 -9.32 3.64 -10 5 C-11.65 4.67 -13.3 4.34 -15 4 C-15.33 4.99 -15.66 5.98 -16 7 C-16.33 6.34 -16.66 5.68 -17 5 C-12.56163097 -0.48269116 -6.60186946 -1.71648606 0 0 Z " fill="#E01415" transform="translate(198,73)"/>
<path d="M0 0 C0.33 0.66 0.66 1.32 1 2 C0.01 3.485 0.01 3.485 -1 5 C-0.67 5.99 -0.34 6.98 0 8 C0.66 7.67 1.32 7.34 2 7 C1.34 11.29 0.68 15.58 0 20 C-0.33 20 -0.66 20 -1 20 C-1.33 17.03 -1.66 14.06 -2 11 C-2.99 11 -3.98 11 -5 11 C-3.92289822 6.69159287 -2.96052484 3.36423277 0 0 Z " fill="#1666A4" transform="translate(119,371)"/>
<path d="M0 0 C-1 1 -1 1 -4.0625 1.0625 C-5.031875 1.041875 -6.00125 1.02125 -7 1 C-7 1.66 -7 2.32 -7 3 C-5.35 3.33 -3.7 3.66 -2 4 C-4.55144824 4.93045933 -5.74006478 5.08564091 -8.359375 4.22265625 C-9.14828125 3.83980469 -9.9371875 3.45695313 -10.75 3.0625 C-11.54921875 2.68222656 -12.3484375 2.30195313 -13.171875 1.91015625 C-13.77515625 1.60980469 -14.3784375 1.30945313 -15 1 C-15 0.67 -15 0.34 -15 0 C-13.25093341 -0.19601608 -11.50068154 -0.38147403 -9.75 -0.5625 C-8.77546875 -0.66691406 -7.8009375 -0.77132812 -6.796875 -0.87890625 C-4.2368648 -0.98974468 -2.41851841 -0.77738092 0 0 Z " fill="#D81E1E" transform="translate(142,218)"/>
<path d="M0 0 C7.75 -0.125 7.75 -0.125 10 1 C9.67 1.99 9.34 2.98 9 4 C6.03 4 3.06 4 0 4 C0 2.68 0 1.36 0 0 Z " fill="#E20B44" transform="translate(246,363)"/>
<path d="M0 0 C0.66 0 1.32 0 2 0 C1.5547115 5.27315333 0.91626837 10.01770224 -1 15 C-1.33 15 -1.66 15 -2 15 C-3.44203141 6.05245573 -3.44203141 6.05245573 -1.6875 1.875 C-1.130625 1.25625 -0.57375 0.6375 0 0 Z " fill="#0D4196" transform="translate(301,138)"/>
<path d="M0 0 C0 3 0 3 -1 6 C-1 7.32 -1 8.64 -1 10 C-2.65 10.66 -4.3 11.32 -6 12 C-5.01 10.68 -4.02 9.36 -3 8 C-4.98 8 -6.96 8 -9 8 C-7.88625 7.13375 -7.88625 7.13375 -6.75 6.25 C-4.33912357 4.27746474 -2.15957299 2.23955718 0 0 Z " fill="#E7A735" transform="translate(183,422)"/>
<path d="M0 0 C0 0.99 0 1.98 0 3 C3.3 3.33 6.6 3.66 10 4 C10 4.33 10 4.66 10 5 C9.09636719 5.13277344 8.19273437 5.26554687 7.26171875 5.40234375 C5.49248047 5.66724609 5.49248047 5.66724609 3.6875 5.9375 C1.92986328 6.19853516 1.92986328 6.19853516 0.13671875 6.46484375 C-3.01641403 6.92093031 -3.01641403 6.92093031 -6 8 C-6 7.34 -6 6.68 -6 6 C-5.34 5.67 -4.68 5.34 -4 5 C-3.67 4.01 -3.34 3.02 -3 2 C-3.99 1.67 -4.98 1.34 -6 1 C-4 0 -4 0 0 0 Z " fill="#1265A8" transform="translate(134,363)"/>
<path d="M0 0 C3.875 1.75 3.875 1.75 5 4 C5.07033769 5.87379605 5.0843022 7.75001102 5.0625 9.625 C5.05347656 10.62789062 5.04445312 11.63078125 5.03515625 12.6640625 C5.02355469 13.43492188 5.01195312 14.20578125 5 15 C2.37629764 11.99754796 1.63697652 10.22853212 1.8125 6.25 C1.83957031 5.45078125 1.86664063 4.6515625 1.89453125 3.828125 C1.94673828 2.92320313 1.94673828 2.92320313 2 2 C1.34 2 0.68 2 0 2 C0 1.34 0 0.68 0 0 Z " fill="#E21519" transform="translate(151,75)"/>
<path d="M0 0 C1.65 0 3.3 0 5 0 C6.06775224 1.96466413 7.06553465 3.96855359 8 6 C7.67 6.66 7.34 7.32 7 8 C6.67 7.01 6.34 6.02 6 5 C5.01 4.67 4.02 4.34 3 4 C2.34 4.99 1.68 5.98 1 7 C0.67 4.69 0.34 2.38 0 0 Z " fill="#B72D4A" transform="translate(223,391)"/>
<path d="M0 0 C0.33 0.66 0.66 1.32 1 2 C1.99 2.33 2.98 2.66 4 3 C2.88121617 4.17262904 1.75476949 5.33795138 0.625 6.5 C-0.00148438 7.1496875 -0.62796875 7.799375 -1.2734375 8.46875 C-3 10 -3 10 -5 10 C-5 6 -5 6 -3.625 4.25 C-2 3 -2 3 0 3 C0 2.01 0 1.02 0 0 Z " fill="#0B4198" transform="translate(261,200)"/>
<path d="M0 0 C1.99954746 -0.04254356 4.00041636 -0.04080783 6 0 C7 1 7 1 7.0625 3.5625 C7.041875 4.366875 7.02125 5.17125 7 6 C5.39620659 6.05416188 3.79188594 6.09286638 2.1875 6.125 C1.29417969 6.14820313 0.40085938 6.17140625 -0.51953125 6.1953125 C-3 6 -3 6 -6 4 C1.42857143 3.85714286 1.42857143 3.85714286 5 5 C4.33131686 1.88667752 4.33131686 1.88667752 1.9375 0.8125 C1.298125 0.544375 0.65875 0.27625 0 0 Z " fill="#296B95" transform="translate(134,407)"/>
<path d="M0 0 C0.66 0.66 1.32 1.32 2 2 C1.67 2.66 1.34 3.32 1 4 C0.72641885 6.85306062 0.55374758 9.70570456 0.37890625 12.56640625 C0.25386719 13.36949219 0.12882813 14.17257812 0 15 C-0.99 15.495 -0.99 15.495 -2 16 C-3.27170568 9.525862 -2.68902652 6.02341941 0 0 Z " fill="#068734" transform="translate(199,401)"/>
<path d="M0 0 C0.99 0.33 1.98 0.66 3 1 C2.88648483 2.81325551 2.75887039 4.62563357 2.625 6.4375 C2.55539063 7.44683594 2.48578125 8.45617187 2.4140625 9.49609375 C2.27742188 10.32238281 2.14078125 11.14867187 2 12 C1.01 12.495 1.01 12.495 0 13 C-0.19397476 11.02145742 -0.38001321 9.0421352 -0.5625 7.0625 C-0.66691406 5.96035156 -0.77132812 4.85820312 -0.87890625 3.72265625 C-0.91886719 2.82417969 -0.95882812 1.92570312 -1 1 C-0.67 0.67 -0.34 0.34 0 0 Z " fill="#056AC4" transform="translate(115,381)"/>
<path d="M0 0 C3.68802044 1.22934015 4.72356973 2.93859378 7 6 C6.67 6.66 6.34 7.32 6 8 C4.68 7.01 3.36 6.02 2 5 C2 5.99 2 6.98 2 8 C2.66 8 3.32 8 4 8 C3.67 9.32 3.34 10.64 3 12 C1.02 8.535 1.02 8.535 -1 5 C-0.34 5 0.32 5 1 5 C0.67 3.35 0.34 1.7 0 0 Z " fill="#D11D4B" transform="translate(263,367)"/>
<path d="M0 0 C0.66 0.33 1.32 0.66 2 1 C-0.97 4.3 -3.94 7.6 -7 11 C-8.32 10.67 -9.64 10.34 -11 10 C-5.555 5.05 -5.555 5.05 0 0 Z " fill="#DA1514" transform="translate(207,176)"/>
<path d="M0 0 C0.66 0 1.32 0 2 0 C2 1.32 2 2.64 2 4 C2.99 4 3.98 4 5 4 C5 5.65 5 7.3 5 9 C4.01 9 3.02 9 2 9 C2 8.34 2 7.68 2 7 C1.34 7 0.68 7 0 7 C0 4.69 0 2.38 0 0 Z " fill="#088836" transform="translate(199,417)"/>
<path d="M0 0 C0.66 0.33 1.32 0.66 2 1 C-1.42388092 4.82669043 -4.00724943 6.72278474 -9 8 C-9 8.66 -9 9.32 -9 10 C-9.99 9.67 -10.98 9.34 -12 9 C-8.11327187 5.81994972 -4.10047867 2.89445553 0 0 Z " fill="#10438F" transform="translate(228,205)"/>
<path d="M0 0 C0.33 1.32 0.66 2.64 1 4 C-1.64 6.31 -4.28 8.62 -7 11 C-7.66 10.67 -8.32 10.34 -9 10 C-6.03 6.7 -3.06 3.4 0 0 Z " fill="#DE1314" transform="translate(228,155)"/>
<path d="M0 0 C0.66 0.33 1.32 0.66 2 1 C2 2.98 2 4.96 2 7 C0.02 7.99 0.02 7.99 -2 9 C-2.25 3.375 -2.25 3.375 0 0 Z " fill="#111F18" transform="translate(216,385)"/>
<path d="M0 0 C2.64 0 5.28 0 8 0 C8 0.33 8 0.66 8 1 C6.7934375 1.185625 6.7934375 1.185625 5.5625 1.375 C4.716875 1.58125 3.87125 1.7875 3 2 C2.67 2.66 2.34 3.32 2 4 C3.32 4.66 4.64 5.32 6 6 C3.03 5.67 0.06 5.34 -3 5 C-2.505 4.360625 -2.01 3.72125 -1.5 3.0625 C0.09802862 1.29025661 0.09802862 1.29025661 0 0 Z " fill="#178542" transform="translate(216,431)"/>
<path d="M0 0 C2.12508244 3.18762365 2.5020163 5.26512223 3 9 C1.35 9 -0.3 9 -2 9 C-2.66 7.02 -3.32 5.04 -4 3 C-3.34 3 -2.68 3 -2 3 C-1.67 3.99 -1.34 4.98 -1 6 C-0.34 6.33 0.32 6.66 1 7 C0.67 4.69 0.34 2.38 0 0 Z " fill="#D69E34" transform="translate(189,399)"/>
<path d="M0 0 C0.33 0 0.66 0 1 0 C1 1.98 1 3.96 1 6 C-1.6666419 7.33332095 -3.16680303 6.67102033 -6 6 C-4 4 -2 2 0 0 Z " fill="#09439A" transform="translate(236,199)"/>
<path d="M0 0 C0.66 0.99 1.32 1.98 2 3 C1.34 3 0.68 3 0 3 C-0.20625 3.763125 -0.4125 4.52625 -0.625 5.3125 C-2.43756071 8.8552323 -4.33618653 9.62606995 -8 11 C-8.66 10.67 -9.32 10.34 -10 10 C-9.44570312 9.61328125 -8.89140625 9.2265625 -8.3203125 8.828125 C-7.59585938 8.30734375 -6.87140625 7.7865625 -6.125 7.25 C-5.40570313 6.73953125 -4.68640625 6.2290625 -3.9453125 5.703125 C-1.91429435 3.92496453 -1.02144988 2.47298393 0 0 Z " fill="#266BA4" transform="translate(157,396)"/>
<path d="M0 0 C1.37095624 3.69037278 0.60010967 5.70883835 -0.9375 9.25 C-1.31777344 10.14203125 -1.69804687 11.0340625 -2.08984375 11.953125 C-2.39019531 12.62859375 -2.69054687 13.3040625 -3 14 C-3.33 14 -3.66 14 -4 14 C-4.45019307 9.19794054 -2.94434428 5.31181012 -1 1 C-0.67 0.67 -0.34 0.34 0 0 Z " fill="#D81617" transform="translate(270,125)"/>
<path d="M0 0 C3.37503669 1.1858237 5.64722731 2.27573689 8 5 C5.03 4.505 5.03 4.505 2 4 C2 4.99 2 5.98 2 7 C1.01 6.67 0.02 6.34 -1 6 C-0.67 4.02 -0.34 2.04 0 0 Z " fill="#C1274B" transform="translate(234,403)"/>
<path d="M0 0 C1.9375 0.125 1.9375 0.125 4 1 C5.25 3.5625 5.25 3.5625 6 6 C3.625 5.75 3.625 5.75 1 5 C-0.3125 2.9375 -0.3125 2.9375 -1 1 C-0.67 0.67 -0.34 0.34 0 0 Z " fill="#332A13" transform="translate(169,390)"/>
<path d="M0 0 C-2.52788007 2.79872437 -4.20411134 4.45773019 -8 5 C-8 3.68 -8 2.36 -8 1 C-4.93251126 -0.86240388 -3.40254489 -1.2151946 0 0 Z " fill="#0B4393" transform="translate(244,219)"/>
<path d="M0 0 C1.98 0.66 3.96 1.32 6 2 C6 2.66 6 3.32 6 4 C4.68 4.33 3.36 4.66 2 5 C2.99 5.33 3.98 5.66 5 6 C4.34 6.66 3.68 7.32 3 8 C0.37613513 4.93882432 0 4.26826873 0 0 Z " fill="#1D1D1D" transform="translate(151,112)"/>
<path d="M0 0 C0.99 0.33 1.98 0.66 3 1 C3.33 3.31 3.66 5.62 4 8 C3.01 7.67 2.02 7.34 1 7 C1 6.01 1 5.02 1 4 C0.34 4 -0.32 4 -1 4 C-0.67 2.68 -0.34 1.36 0 0 Z " fill="#F6A516" transform="translate(186,398)"/>
<path d="M0 0 C0 3 0 3 -1.875 5.1875 C-4 7 -4 7 -6 7 C-6 7.99 -6 8.98 -6 10 C-7.32 9.67 -8.64 9.34 -10 9 C-6.7 6.03 -3.4 3.06 0 0 Z " fill="#133F8A" transform="translate(247,189)"/>
<path d="M0 0 C2.475 0.495 2.475 0.495 5 1 C4.67 2.32 4.34 3.64 4 5 C2.68 5 1.36 5 0 5 C0 3.35 0 1.7 0 0 Z " fill="#132D1C" transform="translate(200,407)"/>
<path d="M0 0 C0 0.66 0 1.32 0 2 C0.66 2.33 1.32 2.66 2 3 C-5.42857143 5.42857143 -5.42857143 5.42857143 -9 4 C-2.25 0 -2.25 0 0 0 Z " fill="#0E4393" transform="translate(213,216)"/>
<path d="M0 0 C0 0.99 0 1.98 0 3 C-2.31 3 -4.62 3 -7 3 C-6.67 2.01 -6.34 1.02 -6 0 C-3.50907189 -1.24546405 -2.58919267 -0.7767578 0 0 Z " fill="#F50304" transform="translate(142,76)"/>
<path d="M0 0 C1.32 0 2.64 0 4 0 C4 1.65 4 3.3 4 5 C2.02 5.99 0.04 6.98 -2 8 C-2 7.01 -2 6.02 -2 5 C-0.68 4.67 0.64 4.34 2 4 C2 3.34 2 2.68 2 2 C1.34 1.34 0.68 0.68 0 0 Z " fill="#187D3F" transform="translate(210,387)"/>
<path d="M0 0 C1.65 0 3.3 0 5 0 C5.33 0.66 5.66 1.32 6 2 C5.01 3.485 5.01 3.485 4 5 C2.68 4.34 1.36 3.68 0 3 C0 2.01 0 1.02 0 0 Z " fill="#2E5729" transform="translate(241,412)"/>
<path d="M0 0 C2.95183101 2.95183101 3.08663988 5.95511947 4 10 C2.35 10 0.7 10 -1 10 C-0.01 9.67 0.98 9.34 2 9 C1.34 8.01 0.68 7.02 0 6 C-0.125 2.8125 -0.125 2.8125 0 0 Z " fill="#29733F" transform="translate(243,398)"/>
<path d="M0 0 C0 1.65 0 3.3 0 5 C-0.99 5.495 -0.99 5.495 -2 6 C-2 5.01 -2 4.02 -2 3 C-3.65 3 -5.3 3 -7 3 C-3.375 0 -3.375 0 0 0 Z " fill="#CBA04C" transform="translate(160,386)"/>
<path d="M0 0 C0.33 0.66 0.66 1.32 1 2 C-1.45614035 7 -1.45614035 7 -3 9 C-3.99 9.33 -4.98 9.66 -6 10 C-4.6302836 6.00499382 -2.74277578 3.19990508 0 0 Z " fill="#D41518" transform="translate(245,133)"/>
<path d="M0 0 C0.66 0 1.32 0 2 0 C1.67 2.31 1.34 4.62 1 7 C0.01 7 -0.98 7 -2 7 C-1.42415568 4.61435923 -0.77772405 2.33317216 0 0 Z " fill="#058933" transform="translate(240,419)"/>
<path d="M0 0 C2.64 0.33 5.28 0.66 8 1 C8 1.66 8 2.32 8 3 C8.66 3.33 9.32 3.66 10 4 C6.44219804 3.39009109 3.3171411 2.4216319 0 1 C0 0.67 0 0.34 0 0 Z " fill="#19221A" transform="translate(186,409)"/>
<path d="M0 0 C-0.99 1.485 -0.99 1.485 -2 3 C-5.125 3.1875 -5.125 3.1875 -8 3 C-8 2.34 -8 1.68 -8 1 C-3.375 -1.125 -3.375 -1.125 0 0 Z " fill="#E50A46" transform="translate(242,366)"/>
<path d="M0 0 C1.65 0 3.3 0 5 0 C2.31158141 2.25245881 0.35358125 3.88213958 -3 5 C-3.33 4.01 -3.66 3.02 -4 2 C-2.68 2 -1.36 2 0 2 C0 1.34 0 0.68 0 0 Z " fill="#DF1017" transform="translate(204,202)"/>
<path d="M0 0 C0 0.66 0 1.32 0 2 C-3.2491277 4.3208055 -6.05879291 5.43697042 -10 6 C-7.35570758 3.077361 -4.105808 0 0 0 Z " fill="#D71513" transform="translate(180,199)"/>
<path d="M0 0 C0.66 0 1.32 0 2 0 C2 0.66 2 1.32 2 2 C2.99 2.33 3.98 2.66 5 3 C2.525 4.485 2.525 4.485 0 6 C-0.38218767 4.34385343 -0.71395102 2.67542976 -1 1 C-0.67 0.67 -0.34 0.34 0 0 Z " fill="#EA0B0C" transform="translate(213,193)"/>
<path d="M0 0 C2.31 0 4.62 0 7 0 C7 0.99 7 1.98 7 3 C4.69 2.67 2.38 2.34 0 2 C0 1.34 0 0.68 0 0 Z " fill="#036BC0" transform="translate(132,409)"/>
<path d="M0 0 C5.75 1.75 5.75 1.75 8 4 C5.69 4 3.38 4 1 4 C0.67 2.68 0.34 1.36 0 0 Z " fill="#036BC5" transform="translate(122,404)"/>
<path d="M0 0 C1.65 0 3.3 0 5 0 C5.33 1.32 5.66 2.64 6 4 C4.35 3.67 2.7 3.34 1 3 C0.67 2.01 0.34 1.02 0 0 Z " fill="#036AC1" transform="translate(146,365)"/>
<path d="M0 0 C0.33 0.99 0.66 1.98 1 3 C-1.3125 6.1875 -1.3125 6.1875 -4 9 C-4.66 9 -5.32 9 -6 9 C-4.47291037 5.56404834 -2.40072955 2.88087546 0 0 Z " fill="#0C438D" transform="translate(268,165)"/>
<path d="M0 0 C0.33 0 0.66 0 1 0 C1.144375 1.11375 1.28875 2.2275 1.4375 3.375 C1.78372035 6.82142047 1.78372035 6.82142047 3 9 C1.68 8.67 0.36 8.34 -1 8 C-0.67 5.36 -0.34 2.72 0 0 Z " fill="#AD3047" transform="translate(224,377)"/>
<path d="M0 0 C0.33 0 0.66 0 1 0 C1 1.65 1 3.3 1 5 C-0.98 5.99 -0.98 5.99 -3 7 C-2.25 2.25 -2.25 2.25 0 0 Z " fill="#E20A45" transform="translate(230,371)"/>
<path d="M0 0 C0.33 0.66 0.66 1.32 1 2 C-2.625 5 -2.625 5 -6 5 C-5.25 3.0625 -5.25 3.0625 -4 1 C-1.875 0.25 -1.875 0.25 0 0 Z " fill="#E90C0F" transform="translate(186,195)"/>
<path d="M0 0 C1.36125 0.12375 1.36125 0.12375 2.75 0.25 C1.7909375 0.4046875 1.7909375 0.4046875 0.8125 0.5625 C0.131875 0.789375 -0.54875 1.01625 -1.25 1.25 C-1.58 2.24 -1.91 3.23 -2.25 4.25 C-3.9 4.25 -5.55 4.25 -7.25 4.25 C-4.83923194 1.28290085 -3.90322061 0.30024774 0 0 Z " fill="#D8181D" transform="translate(143.25,71.75)"/>
<path d="M0 0 C0.99 0.495 0.99 0.495 2 1 C1.01 1.495 1.01 1.495 0 2 C0 1.34 0 0.68 0 0 Z " fill="#000000" transform="translate(46,273)"/>
<path d="M0 0 C2 1 2 1 2 1 Z " fill="#000000" transform="translate(362,273)"/>
<path d="" fill="#000000" transform="translate(0,0)"/>
<path d="" fill="#000000" transform="translate(0,0)"/>
<path d="" fill="#000000" transform="translate(0,0)"/>
<path d="" fill="#000000" transform="translate(0,0)"/>
</svg>
