<?xml version="1.0" encoding="UTF-8"?>
<svg xmlns="http://www.w3.org/2000/svg" version="1.1" width="781" height="492" style="background: transparent;">
<path d="M0 0 C257.73 0 515.46 0 781 0 C781 162.36 781 324.72 781 492 C523.27 492 265.54 492 0 492 C0 329.64 0 167.28 0 0 Z " fill="#FEFEFE" transform="translate(0,0)"/>
<path d="M0 0 C2.1487149 1.65058453 3.98800324 3.48720635 5.91796875 5.38671875 C8.85024743 7.65882212 11.2931713 7.76048078 14.921875 7.734375 C17.73709135 8.09421468 18.89919351 9.10329969 21 11 C26.70551033 22.09583194 26.55864875 36.28084926 27.6875 48.4375 C28.0040811 51.71253513 28.32440846 54.98718252 28.64595032 58.26173401 C28.84337519 60.28589771 29.03723568 62.31041326 29.22697449 64.33531189 C29.66251674 68.92775142 30.15578323 73.46002145 31 78 C31.13575439 76.87319824 31.27150879 75.74639648 31.41137695 74.58544922 C32.72015066 63.7350535 34.04337389 52.88650518 35.38037109 42.03955078 C35.75177201 39.0253569 36.12037234 36.01087787 36.48291016 32.99560547 C36.85304286 29.93311959 37.23598152 26.87263268 37.625 23.8125 C37.72337158 22.97380371 37.82174316 22.13510742 37.9230957 21.27099609 C38.52788417 16.65942323 39.49706657 13.02300763 42 9 C44.88692264 7.07538491 46.04219762 6.70148535 49.3125 6.1875 C52.69688894 5.5160809 54.59238987 4.78403598 57.0625 2.375 C60.12861391 -0.10398571 61.90358184 -0.81864705 65.859375 -0.546875 C76.38331349 2.14172242 84.17708665 12.75391023 90 21.25 C90.51981445 22.00015381 91.03962891 22.75030762 91.57519531 23.52319336 C93.0597678 25.67573085 94.5318612 27.83623303 96 30 C97.01320313 31.47919922 97.01320313 31.47919922 98.046875 32.98828125 C114.34798053 57.62687883 132 96.21285444 132 126 C130.68 126 129.36 126 128 126 C127.57332031 125.11183594 127.14664063 124.22367187 126.70703125 123.30859375 C111.50726828 92.07854809 92.72891517 63.24823106 70 37 C68.79126258 35.56283976 67.58284482 34.1254105 66.375 32.6875 C65.199375 31.3571875 65.199375 31.3571875 64 30 C63.67 30 63.34 30 63 30 C62.84144531 31.00675781 62.68289062 32.01351562 62.51953125 33.05078125 C59.28776415 52.83701315 54.30857554 72.50880669 45.29296875 90.51171875 C44.60013794 91.90028076 44.60013794 91.90028076 43.89331055 93.31689453 C42.9899786 95.09696656 42.06424756 96.86591616 41.11254883 98.62060547 C36.38684528 107.84650276 38.52456068 115.52026778 41.5625 125 C44 132.80268595 44 132.80268595 44 135 C42.265625 134.93359375 42.265625 134.93359375 40 134 C38.40234664 131.69389816 37.06469411 129.51903029 35.75 127.0625 C35.38648438 126.41603516 35.02296875 125.76957031 34.6484375 125.10351562 C32 120.30944549 32 120.30944549 32 118 C31.34 118 30.68 118 30 118 C29.7421875 118.70511719 29.484375 119.41023438 29.21875 120.13671875 C27.89669814 123.24269315 26.30252146 125.95978065 24.5 128.8125 C23.58734375 130.27623047 23.58734375 130.27623047 22.65625 131.76953125 C22.1096875 132.50558594 21.563125 133.24164063 21 134 C20.34 134 19.68 134 19 134 C19.49330901 127.71031009 21.10947939 122.208382 23.16015625 116.24609375 C25.44355833 107.42047921 22.44753392 102.12160252 18.4375 94.375 C8.07168824 73.52918201 0.95230359 51.42666828 0 28 C-16.79843273 41.14230325 -29.48667508 60.56801905 -40.91894531 78.33398438 C-41.93347426 79.89747704 -42.97749957 81.44171751 -44.0234375 82.984375 C-44.59320313 83.85578125 -45.16296875 84.7271875 -45.75 85.625 C-46.23984375 86.35976563 -46.7296875 87.09453125 -47.234375 87.8515625 C-48.23637175 90.03159629 -48.23637175 90.03159629 -47.37109375 92.46875 C-38.64078699 108.5862394 -21.98357911 121.96795078 -7 132 C-5.96746094 132.70511719 -4.93492187 133.41023437 -3.87109375 134.13671875 C16.74185794 147.53645363 39.25944685 153.01489245 63 158 C63 162.29 63 166.58 63 171 C40.62617411 171.63852243 18.34049846 162.50815073 -1 152 C-1.60537598 151.67918457 -2.21075195 151.35836914 -2.83447266 151.02783203 C-23.0706779 140.2792245 -42.89928082 123.92326104 -56 105 C-59.22081715 108.87748861 -61.37485896 113.30176221 -63.6875 117.75 C-64.10322266 118.54277344 -64.51894531 119.33554687 -64.94726562 120.15234375 C-65.96799486 122.09994207 -66.9854562 124.04917449 -68 126 C-68.99 126 -69.98 126 -71 126 C-70.44798159 118.03409733 -68.78467103 110.73007322 -66.640625 103.06054688 C-64.26931358 94.16812904 -66.41623764 89.86033913 -70.75 82 C-74.77807113 74.48736708 -78.31641768 67.11095554 -81 59 C-81.41958984 57.7627417 -81.41958984 57.7627417 -81.84765625 56.50048828 C-86.150648 43.6972874 -89.17425326 31.49843146 -90 18 C-87.85423363 17.97314062 -85.70837355 17.95366912 -83.5625 17.9375 C-82.36753906 17.92589844 -81.17257813 17.91429687 -79.94140625 17.90234375 C-77 18 -77 18 -76 19 C-75.70306135 20.70259069 -75.41229617 22.40647304 -75.15161133 24.11499023 C-72.62600983 40.48139708 -67.57327288 55.61168078 -60.5390625 70.5703125 C-59 74 -59 74 -59 76 C-58.34 76 -57.68 76 -57 76 C-56.7215625 74.2675 -56.7215625 74.2675 -56.4375 72.5 C-53.58635355 59.79943855 -46.68778445 48.03484435 -40 37 C-39.18789062 35.63681641 -39.18789062 35.63681641 -38.359375 34.24609375 C-15.22998327 -3.42337677 -15.22998327 -3.42337677 0 0 Z " fill="#030303" transform="translate(191,252)"/>
<path d="M0 0 C0 4.62 0 9.24 0 14 C-1.60746094 14.29132813 -3.21492187 14.58265625 -4.87109375 14.8828125 C-25.26121051 18.68997782 -42.44812461 24.83606594 -61 34 C-60.38801758 34.12552246 -59.77603516 34.25104492 -59.14550781 34.38037109 C-58.33952148 34.55133301 -57.53353516 34.72229492 -56.703125 34.8984375 C-55.50671387 35.14859619 -55.50671387 35.14859619 -54.28613281 35.40380859 C-49.29160164 36.70631234 -46.10874554 39.48693696 -43.125 43.5625 C-40.24041668 48.57551373 -40.12962892 53.36722115 -41 59 C-42.62315902 64.6333166 -45.46609971 67.90311674 -50.31640625 71.08984375 C-55.00227622 73.62304028 -59.81948347 73.44520064 -65 73 C-70.78781057 70.92512451 -74.40615711 67.36328428 -77.8125 62.3125 C-79.73284031 56.95576124 -79.80211131 51.40633392 -78 46 C-93.41142037 57.35005783 -107.93393485 71.98641021 -117 89 C-117 89.99 -117 90.98 -117 92 C-113.57656866 94.88852019 -110.50135316 95.48240579 -106.05078125 95.28125 C-101.12071079 94.60512605 -97.44498899 92.82972582 -94.25 89.0625 C-92.07351164 86.20612791 -92.07351164 86.20612791 -90.71484375 83.828125 C-89 82 -89 82 -86.36328125 81.57421875 C-85.35652344 81.61160156 -84.34976563 81.64898437 -83.3125 81.6875 C-82.25160156 81.72230469 -81.19070312 81.75710937 -80.09765625 81.79296875 C-76.35925057 82.04282436 -72.70298758 82.4303096 -69 83 C-68.08845507 85.4870547 -67.86040805 86.63440203 -68.8203125 89.1484375 C-74.56086617 98.94519076 -81.00665977 106.58243542 -92.54296875 109.68359375 C-100.87522134 110.75658653 -108.65139297 110.68088991 -115.75390625 105.79296875 C-118.34142391 103.7291896 -120.15845166 101.76232252 -122 99 C-131.98045293 115.01583007 -136.95636545 134.40292563 -139 153 C-143.62 153 -148.24 153 -153 153 C-151.37696603 131.57595158 -144.9063709 110.40234875 -134.66796875 91.546875 C-132.20469654 86.98590455 -131.57816787 84.06198555 -132 79 C-134.64 78.01 -137.28 77.02 -140 76 C-139.67 74.02 -139.34 72.04 -139 70 C-139.62648438 69.93941406 -140.25296875 69.87882812 -140.8984375 69.81640625 C-142.12433594 69.69072266 -142.12433594 69.69072266 -143.375 69.5625 C-144.59316406 69.44068359 -144.59316406 69.44068359 -145.8359375 69.31640625 C-148 69 -148 69 -150 68 C-150 66.35 -150 64.7 -150 63 C-146.10590592 61.94826919 -143.82866106 62.08087815 -140.05859375 63.46875 C-139.14529297 63.79230469 -138.23199219 64.11585938 -137.29101562 64.44921875 C-136.34935547 64.79597656 -135.40769531 65.14273438 -134.4375 65.5 C-132.56473567 66.18680791 -130.68852401 66.86430654 -128.80859375 67.53125 C-127.98157959 67.83611328 -127.15456543 68.14097656 -126.30249023 68.45507812 C-123.74541499 69.0602517 -122.42992654 68.95286732 -120 68 C-118.16498048 66.07903554 -118.16498048 66.07903554 -116.375 63.5625 C-89.95473151 30.23298367 -44.10299091 0 0 0 Z " fill="#2A2E87" transform="translate(254,81)"/>
<path d="M0 0 C2.14576637 -0.02685938 4.29162645 -0.04633088 6.4375 -0.0625 C7.63246094 -0.07410156 8.82742187 -0.08570313 10.05859375 -0.09765625 C13 0 13 0 14 1 C14.32192488 2.7331953 14.58870465 4.47669126 14.83203125 6.22265625 C14.98841064 7.3103833 15.14479004 8.39811035 15.3059082 9.51879883 C15.4730835 10.68822021 15.64025879 11.8576416 15.8125 13.0625 C17.33524145 23.24096944 19.06426056 33.12221221 22 43 C22.21430664 43.74894531 22.42861328 44.49789062 22.64941406 45.26953125 C29.13887397 67.61710111 39.38019837 89.11298522 53 108 C53.41846191 108.58378418 53.83692383 109.16756836 54.26806641 109.76904297 C60.2580164 118.03531419 66.94592584 125.63048117 74 133 C74.78068848 133.82951172 74.78068848 133.82951172 75.57714844 134.67578125 C108.84784608 169.9152769 156.19766667 193.36551048 204.4050293 198.35449219 C207.4310656 198.66916294 210.10191725 199.03397242 213 200 C213 204.62 213 209.24 213 214 C159.08831822 210.8287246 108.77028247 187.25746746 70 150 C69.40541992 149.43265137 68.81083984 148.86530273 68.19824219 148.28076172 C43.38780199 124.48756236 24.67478474 95.29519416 12.75927734 63.04150391 C12.1320872 61.35514892 11.4708727 59.68149061 10.80078125 58.01171875 C3.81934391 40.26838196 -1.01186628 19.1130297 0 0 Z " fill="#E30510" transform="translate(41,270)"/>
<path d="M0 0 C0 4.62 0 9.24 0 14 C-1.27230469 14.15855469 -2.54460937 14.31710938 -3.85546875 14.48046875 C-50.60983251 20.5698892 -92.58476853 38.68746512 -128 70 C-128.91652344 70.7940625 -129.83304687 71.588125 -130.77734375 72.40625 C-135.96459713 76.96167251 -140.59126742 81.69633238 -145 87 C-145.74765625 87.85980469 -146.4953125 88.71960938 -147.265625 89.60546875 C-177.41518319 124.73254834 -193.2378884 166.42693556 -199 212 C-203.62 212 -208.24 212 -213 212 C-213.23966872 204.17808456 -212.39654274 196.99120497 -210.9375 189.3125 C-210.71344482 188.13204102 -210.48938965 186.95158203 -210.25854492 185.73535156 C-202.05897063 144.27839298 -182.5867287 106.20847157 -153.984375 75.171875 C-152.23881698 73.26138237 -150.58142549 71.30995786 -148.9375 69.3125 C-146.26490361 66.17128396 -143.3087368 63.52115924 -140.1640625 60.859375 C-138.71233924 59.61204599 -137.29007162 58.3296587 -135.8984375 57.015625 C-115.70630957 38.00310592 -90.7331828 23.96071795 -65 14 C-64.29423828 13.71721191 -63.58847656 13.43442383 -62.86132812 13.14306641 C-43.28067514 5.3324361 -21.14025062 0 0 0 Z " fill="#E30410" transform="translate(254,21)"/>
<path d="M0 0 C9.60096402 0.52691953 18.65093097 1.62996512 28.0625 3.625 C29.3218335 3.89078857 30.58116699 4.15657715 31.87866211 4.43041992 C71.59695391 13.1094058 108.72124682 32.72747641 138.34765625 60.53515625 C140.45711064 62.49548868 142.58945942 64.36054683 144.8125 66.1875 C148.6373149 69.43446517 151.77177277 73.1727853 155 77 C155.825 77.93714844 156.65 78.87429687 157.5 79.83984375 C173.18177724 97.75742752 185.49113011 118.2101304 195 140 C195.29422852 140.67369629 195.58845703 141.34739258 195.89160156 142.04150391 C199.14068246 149.57812616 201.74728471 156.85735062 203 165 C198.38 165 193.76 165 189 165 C188.3709375 163.453125 187.741875 161.90625 187.09375 160.3125 C175.70040535 132.49096919 162.54979131 107.48498666 142.05078125 85.23828125 C140.12555454 83.13703381 138.27921697 80.98680694 136.4375 78.8125 C132.92103801 74.80277863 129.10230812 71.39959793 125 68 C124.45730469 67.53964355 123.91460937 67.07928711 123.35546875 66.60498047 C103.68079808 49.92680006 82.15038081 37.0925264 58 28 C57.25266602 27.68772461 56.50533203 27.37544922 55.73535156 27.05371094 C49.55217102 24.47840281 43.37705875 22.59298271 36.875 21 C35.85470703 20.74653809 34.83441406 20.49307617 33.78320312 20.23193359 C22.62561218 17.54136608 11.34301758 15.70949733 0 14 C0 9.38 0 4.76 0 0 Z " fill="#E30410" transform="translate(291,21)"/>
<path d="M0 0 C1.80318355 0.22863977 3.59568909 0.53910408 5.38354492 0.86669922 C-1.19912541 14.6139334 -12.14700874 25.98562271 -22.61645508 36.86669922 C-23.1670459 37.44452148 -23.71763672 38.02234375 -24.28491211 38.61767578 C-32.49838659 47.20395713 -41.0742045 54.79607443 -50.61645508 61.86669922 C-51.73626418 62.71693667 -52.85605597 63.56719692 -53.97583008 64.41748047 C-85.92359814 88.30776888 -130.33338156 106.86669922 -170.61645508 106.86669922 C-170.61645508 102.24669922 -170.61645508 97.62669922 -170.61645508 92.86669922 C-168.38698435 91.75196385 -166.74967379 91.56590817 -164.27661133 91.28857422 C-117.72708435 85.73540104 -73.94299553 66.05516581 -40.1262207 33.32519531 C-39.07652831 32.31114901 -38.02000464 31.304146 -36.95825195 30.30273438 C-35.1851097 28.62904401 -33.42838467 26.94015364 -31.67895508 25.24169922 C-31.08872559 24.67056396 -30.49849609 24.09942871 -29.89038086 23.51098633 C-26.66244183 20.27729734 -23.94592685 17.01875169 -21.43676758 13.19482422 C-15.2766173 3.87210535 -11.77374357 -1.0005873 0 0 Z " fill="#E30410" transform="translate(461.616455078125,377.13330078125)"/>
<path d="M0 0 C0.99 0.33 1.98 0.66 3 1 C5.96616874 1.12059979 8.9105516 1.18543804 11.87768555 1.20532227 C13.23896576 1.22017166 13.23896576 1.22017166 14.62774658 1.23532104 C17.63071067 1.2669362 20.63369058 1.2916936 23.63671875 1.31640625 C25.71751825 1.33697576 27.79831356 1.35797223 29.87910461 1.37937927 C35.35845558 1.43460024 40.83784426 1.48400945 46.31726074 1.53222656 C51.90750489 1.58244137 57.4976942 1.63812755 63.08789062 1.69335938 C74.05854692 1.80094127 85.0292508 1.90238622 96 2 C96.625 3.875 96.625 3.875 97 6 C94.54503574 8.45496426 93.83581235 8.26466611 90.45849609 8.31884766 C89.51767181 8.33871735 88.57684753 8.35858704 87.60751343 8.37905884 C86.58976837 8.39061005 85.57202332 8.40216125 84.5234375 8.4140625 C82.96286118 8.44311172 82.96286118 8.44311172 81.37075806 8.4727478 C78.0389228 8.53265727 74.70705321 8.57897452 71.375 8.625 C69.11977637 8.6631693 66.86456748 8.7022204 64.609375 8.7421875 C59.07304725 8.83836799 53.53663115 8.92338196 48 9 C47.40904541 10.10625732 47.40904541 10.10625732 46.80615234 11.23486328 C46.27973145 12.21181152 45.75331055 13.18875977 45.2109375 14.1953125 C44.69321777 15.15969238 44.17549805 16.12407227 43.64208984 17.11767578 C38.36451537 26.38128629 32.17504578 32.51706206 22 36 C12.59989118 37.14343615 4.69158459 35.67366081 -2.80859375 29.80078125 C-9.58341255 23.8331749 -9.58341255 23.8331749 -11 21 C-17.98051533 21.38075538 -24.18703402 23.11081022 -30.79467773 25.2722168 C-35.38733971 26.72233619 -39.18216332 27.24658219 -44 27 C-43.88638398 24.20743781 -43.7596411 21.41655882 -43.625 18.625 C-43.5940625 17.8309375 -43.563125 17.036875 -43.53125 16.21875 C-43.2265625 10.2265625 -43.2265625 10.2265625 -41 8 C-39.20297241 7.68356323 -39.20297241 7.68356323 -37.00927734 7.58935547 C-36.18857758 7.54946503 -35.36787781 7.50957458 -34.52230835 7.46847534 C-33.63580597 7.43505035 -32.74930359 7.40162537 -31.8359375 7.3671875 C-30.92872955 7.32562531 -30.02152161 7.28406311 -29.08682251 7.24124146 C-26.1831954 7.1102679 -23.27920089 6.99249161 -20.375 6.875 C-18.40881588 6.78862765 -16.44266917 6.70139899 -14.4765625 6.61328125 C-9.65142003 6.39890781 -4.82590733 6.19637017 0 6 C0 4.02 0 2.04 0 0 Z " fill="#060606" transform="translate(273,155)"/>
<path d="M0 0 C23.5102666 1.09350077 44.45236974 8.85631952 65 20 C65.93706787 20.50587646 65.93706787 20.50587646 66.89306641 21.02197266 C98.64234083 38.42913404 127.07565369 68.88857063 140 103 C140 103.66 140 104.32 140 105 C135.05 105 130.1 105 125 105 C124.39414062 103.79085937 123.78828125 102.58171875 123.1640625 101.3359375 C115.21035654 85.69637574 106.16746561 72.60767782 94 60 C93.22269531 59.15953125 92.44539063 58.3190625 91.64453125 57.453125 C67.7585677 32.32685179 33.77966132 18.31156054 0 13 C0 8.71 0 4.42 0 0 Z " fill="#2A2E87" transform="translate(291,82)"/>
<path d="M0 0 C2.80165528 2.40212345 4.92159363 4.9613942 7 8 C7.639375 8.886875 8.27875 9.77375 8.9375 10.6875 C11.1595163 17.61496258 11.09823204 25.23950396 8.3125 32 C4.78305856 38.77405076 -0.83172205 43.06126607 -7.6875 46.25 C-16.60384282 48.2687946 -23.28225436 47.26630889 -31.32421875 42.84375 C-37.21760067 38.78290874 -40.10427867 33.82121157 -42 27 C-42.9768413 17.84495248 -42.09014342 11.4016568 -36.5625 4.1015625 C-26.54516009 -7.31242576 -12.3994116 -7.0683459 0 0 Z " fill="#E30510" transform="translate(539,199)"/>
<path d="M0 0 C6.339825 3.67647183 11.3640643 8.92991337 13.5625 16 C14.35554623 24.62051554 14.4449013 32.7695427 9.15625 39.89453125 C4.07818972 45.58339595 -1.941687 48.49536793 -9.5 49.34375 C-15.61757509 49.52727725 -20.09651629 48.99095088 -25.4375 46 C-26.448125 45.484375 -27.45875 44.96875 -28.5 44.4375 C-33.32444275 40.434239 -36.46058774 34.93073677 -38.4375 29 C-39.12799019 21.35932988 -38.76534372 15.43165664 -34.4375 9 C-33.86 8.113125 -33.2825 7.22625 -32.6875 6.3125 C-24.13069737 -2.48199159 -11.35741521 -5.20693805 0 0 Z " fill="#292D87" transform="translate(598.4375,321)"/>
<path d="M0 0 C5.8089993 0.54103425 11.25281349 2.59131766 16.75 4.4375 C17.70777344 4.75009766 18.66554688 5.06269531 19.65234375 5.38476562 C20.56628906 5.68962891 21.48023437 5.99449219 22.421875 6.30859375 C23.66855957 6.72322876 23.66855957 6.72322876 24.94042969 7.14624023 C27 8 27 8 29 10 C28.484375 10.474375 27.96875 10.94875 27.4375 11.4375 C25.22792827 15.37630178 25.81970684 18.73223267 27 23 C29.25617148 27.52102054 32.22743438 31.11317173 37 33 C42.84990213 33.56611956 46.77642483 32.95674066 52 30 C54.51673472 27.56511031 56.50046624 24.84419686 58.28515625 21.828125 C60 20 60 20 62.63671875 19.57421875 C63.64347656 19.61160156 64.65023437 19.64898437 65.6875 19.6875 C66.74839844 19.72230469 67.80929688 19.75710937 68.90234375 19.79296875 C72.64074943 20.04282436 76.29701242 20.4303096 80 21 C80.91154493 23.4870547 81.13959195 24.63440203 80.1796875 27.1484375 C74.43913383 36.94519076 67.99334023 44.58243542 56.45703125 47.68359375 C48.12477866 48.75658653 40.34860703 48.68088991 33.24609375 43.79296875 C30.65857609 41.7291896 28.84154834 39.76232252 27 37 C17.01954707 53.01583007 12.04363455 72.40292563 10 91 C5.38 91 0.76 91 -4 91 C-2.37696603 69.57595158 4.0936291 48.40234875 14.33203125 29.546875 C16.79530346 24.98590455 17.42183213 22.06198555 17 17 C14.36 16.01 11.72 15.02 9 14 C9.33 12.02 9.66 10.04 10 8 C9.37351562 7.93941406 8.74703125 7.87882813 8.1015625 7.81640625 C7.28429687 7.73261719 6.46703125 7.64882812 5.625 7.5625 C4.40683594 7.44068359 4.40683594 7.44068359 3.1640625 7.31640625 C1 7 1 7 -1 6 C-1.042721 4.33388095 -1.04063832 2.66617115 -1 1 C-0.67 0.67 -0.34 0.34 0 0 Z " fill="#070707" transform="translate(105,143)"/>
<path d="M0 0 C29.37142857 0 29.37142857 0 37.375 5.1875 C42.59663271 10.78210647 44.56161838 16.61618376 45.3125 24.125 C44.78044567 30.72247364 42.79960413 36.71401637 38.6875 41.9375 C26.49594477 51.29380983 16.58662692 49 0 49 C0 32.83 0 16.66 0 0 Z " fill="#2A2E87" transform="translate(333,320)"/>
<path d="M0 0 C28.88888889 0 28.88888889 0 37.75 7.25 C43.33652606 14.0779763 44.74311759 19.60322398 44.4375 28.5234375 C43.64634362 34.81030514 41.67210025 39.60260164 36.91015625 43.875 C25.32499751 52.1133351 14.86772152 50 0 50 C0 33.5 0 17 0 0 Z " fill="#E30511" transform="translate(237,195)"/>
<path d="M0 0 C3.21516283 3.21516283 5.73569268 5.84353246 8.375 9.375 C18.26813225 21.82958112 29.81504322 32.17219361 43 41 C44.54880859 42.05767578 44.54880859 42.05767578 46.12890625 43.13671875 C66.74185794 56.53645363 89.25944685 62.01489245 113 67 C113 71.29 113 75.58 113 80 C90.62617411 80.63852243 68.34049846 71.50815073 49 61 C48.09193604 60.51877686 48.09193604 60.51877686 47.16552734 60.02783203 C26.21441874 48.89949838 7.03685992 32.14117261 -7 13 C-3.535 6.565 -3.535 6.565 0 0 Z " fill="#292D87" transform="translate(141,343)"/>
<path d="M0 0 C13 0 13 0 17.33984375 4.05859375 C18.58310496 5.82130874 19.78192926 7.61609428 20.9375 9.4375 C21.54400391 10.31599609 22.15050781 11.19449219 22.77539062 12.09960938 C24.56250475 14.70621824 26.28134198 17.34780591 28 20 C29.98 22.97 31.96 25.94 34 29 C34.33 19.43 34.66 9.86 35 0 C39.29 0 43.58 0 48 0 C48 16.5 48 33 48 50 C35 50 35 50 31.9296875 47.71875 C31.25164063 46.6565625 30.57359375 45.594375 29.875 44.5 C29.49230957 43.93063721 29.10961914 43.36127441 28.71533203 42.7746582 C27.88959398 41.53970043 27.082652 40.2920095 26.29296875 39.03369141 C24.45633063 36.14487049 22.48551464 33.35519623 20.51953125 30.5534668 C18.31910713 27.3877438 16.16410194 24.19066312 14 21 C13.67 30.57 13.34 40.14 13 50 C8.71 50 4.42 50 0 50 C0 33.5 0 17 0 0 Z " fill="#E30410" transform="translate(559,195)"/>
<path d="M0 0 C1.00317261 -0.00942627 1.00317261 -0.00942627 2.02661133 -0.01904297 C8.97594423 0.15736647 14.26454387 2.49378641 19.3125 7.1875 C19.99183594 7.81011719 20.67117188 8.43273437 21.37109375 9.07421875 C21.86738281 9.54472656 22.36367188 10.01523437 22.875 10.5 C19.93048215 13.68616521 16.98388016 15.05828766 12.875 16.5 C10.08993938 16.3361729 8.92874906 15.53732573 6.625 13.9375 C2.94770966 12.01528005 -0.05361046 11.76649055 -4.125 12.5 C-7.46740397 14.38918485 -8.78794513 15.79378979 -10.4375 19.25 C-11.93326971 26.32091136 -11.52139737 31.21037524 -8.125 37.5 C-4.81259039 39.70827308 -3.06150463 40.19719195 0.875 40.5 C4.82375332 39.62993571 7.50546649 38.74635568 10.875 36.5 C11.205 35.51 11.535 34.52 11.875 33.5 C7.915 33.17 3.955 32.84 -0.125 32.5 C-0.125 28.87 -0.125 25.24 -0.125 21.5 C8.455 21.5 17.035 21.5 25.875 21.5 C25.875 37.78571429 25.875 37.78571429 19.453125 45.125 C12.59619657 51.31835471 6.1741116 51.99729878 -2.7421875 51.7890625 C-9.24021398 51.23380389 -14.44265789 49.18234211 -19.125 44.5 C-24.526956 37.30786091 -27.35251573 29.54724554 -26.125 20.5 C-23.84829656 13.05456444 -19.79534901 7.03728126 -13.3125 2.625 C-8.97981758 0.36763605 -4.81060034 0.03431004 0 0 Z " fill="#060606" transform="translate(547.125,256.5)"/>
<path d="M0 0 C22 0 22 0 31 3 C34.88460294 6.96553217 37.13724796 9.72514983 37.25 15.25 C37.19494905 19.53021153 36.41570011 22.37644983 34 26 C31.39070749 28.44621173 30.62968776 29 27 29 C30.13602708 34.98301941 33.64682622 40.48682719 37.64453125 45.93359375 C39 48 39 48 39 50 C34.01007237 50.88753654 28.85857892 51.79989119 24 50 C19.64880933 46.02857899 17.3439991 40.29482029 15 35 C14.67 34.34 14.34 33.68 14 33 C13.67 38.61 13.34 44.22 13 50 C8.71 50 4.42 50 0 50 C0 33.5 0 17 0 0 Z " fill="#E30713" transform="translate(331,195)"/>
<path d="M0 0 C26.79068396 0 26.79068396 0 32.5 4.3125 C36.48209039 8.59324717 37.4910319 12.03869519 37.3125 17.94140625 C36.73701288 21.73242767 35.30368637 23.9082104 33 27 C29.75 28.9375 29.75 28.9375 27 30 C31.78140581 37.6570762 31.78140581 37.6570762 36.9375 45.0625 C39 48 39 48 39 50 C33.81772852 50.66028942 29.16053817 50.96726874 24 50 C20.56735939 46.81372115 18.89570019 43.23106579 17 39 C15.515 36.525 15.515 36.525 14 34 C13.67 39.28 13.34 44.56 13 50 C8.71 50 4.42 50 0 50 C0 33.5 0 17 0 0 Z " fill="#060606" transform="translate(428,257)"/>
<path d="M0 0 C6.496875 -0.12375 6.496875 -0.12375 13.125 -0.25 C15.15744873 -0.30462402 15.15744873 -0.30462402 17.23095703 -0.36035156 C28.25334312 -0.46218258 28.25334312 -0.46218258 33 4 C37.12324944 8.44876913 37.73170908 12.42912485 37.5234375 18.30078125 C36.69178717 22.58936615 34.50560101 25.44316257 31 28 C29.67456364 28.36346574 28.34140434 28.70079558 27 29 C27.36351562 29.5347998 27.72703125 30.06959961 28.1015625 30.62060547 C29.73915793 33.03553385 31.36964824 35.4551761 33 37.875 C33.57234375 38.71675781 34.1446875 39.55851562 34.734375 40.42578125 C35.27578125 41.23144531 35.8171875 42.03710938 36.375 42.8671875 C36.87773438 43.61081543 37.38046875 44.35444336 37.8984375 45.12060547 C39 47 39 47 39 49 C33.98058272 50.02396112 28.85479796 51.00892392 24 49 C19.29435668 44.35954308 16.65786136 37.95360944 14 32 C13.67 37.61 13.34 43.22 13 49 C8.71 49 4.42 49 0 49 C0 32.83 0 16.66 0 0 Z " fill="#2B2F88" transform="translate(516,320)"/>
<path d="M0 0 C1.58206057 0.00667536 3.16410534 0.0186375 4.74609375 0.03515625 C5.55240234 0.03966797 6.35871094 0.04417969 7.18945312 0.04882812 C9.18753131 0.06065107 11.18557158 0.07858711 13.18359375 0.09765625 C17.24969621 10.90918035 21.15810837 21.77260406 24.93780518 32.68740845 C25.39359635 34.00334006 25.85042564 35.31891256 26.30828857 36.63412476 C26.95622488 38.49712508 27.5993073 40.36181139 28.2421875 42.2265625 C28.61657959 43.3101001 28.99097168 44.3936377 29.37670898 45.51000977 C30.18359375 48.09765625 30.18359375 48.09765625 30.18359375 50.09765625 C25.56359375 50.09765625 20.94359375 50.09765625 16.18359375 50.09765625 C15.52359375 47.12765625 14.86359375 44.15765625 14.18359375 41.09765625 C7.91359375 41.42765625 1.64359375 41.75765625 -4.81640625 42.09765625 C-5.47640625 44.73765625 -6.13640625 47.37765625 -6.81640625 50.09765625 C-11.43640625 50.09765625 -16.05640625 50.09765625 -20.81640625 50.09765625 C-20.16031626 46.16111631 -19.61452422 43.12712417 -18.34179688 39.48510742 C-18.04478882 38.62789597 -17.74778076 37.77068451 -17.44177246 36.88749695 C-17.12196411 35.98102921 -16.80215576 35.07456146 -16.47265625 34.140625 C-15.97892517 32.72527214 -15.97892517 32.72527214 -15.47521973 31.28132629 C-14.78154262 29.29619253 -14.08549049 27.31188728 -13.38720703 25.32836914 C-12.3146669 22.28021303 -11.25052826 19.22921904 -10.1875 16.17773438 C-9.51221134 14.24852542 -8.83644683 12.31948295 -8.16015625 10.390625 C-7.8403479 9.4740361 -7.52053955 8.5574472 -7.19104004 7.61308289 C-6.89403198 6.77163223 -6.59702393 5.93018158 -6.29101562 5.06323242 C-6.02977905 4.31965988 -5.76854248 3.57608734 -5.49938965 2.8099823 C-4.20030335 -0.44699189 -3.93388184 0.10066228 0 0 Z " fill="#E30814" transform="translate(391.81640625,194.90234375)"/>
<path d="M0 0 C1.58206057 0.00667536 3.16410534 0.0186375 4.74609375 0.03515625 C5.55240234 0.03966797 6.35871094 0.04417969 7.18945312 0.04882812 C9.18753131 0.06065107 11.18557158 0.07858711 13.18359375 0.09765625 C17.64126088 12.32618318 22.07007897 24.56080587 26.18359375 36.91015625 C26.47371338 37.77987061 26.76383301 38.64958496 27.06274414 39.5456543 C28.22296791 43.05716211 29.28542128 46.50496637 30.18359375 50.09765625 C25.56359375 50.09765625 20.94359375 50.09765625 16.18359375 50.09765625 C14.18359375 45.09765625 14.18359375 45.09765625 14.18359375 41.09765625 C7.91359375 41.42765625 1.64359375 41.75765625 -4.81640625 42.09765625 C-5.47640625 44.40765625 -6.13640625 46.71765625 -6.81640625 49.09765625 C-7.81640625 50.09765625 -7.81640625 50.09765625 -10.7578125 50.1953125 C-11.95277344 50.18371094 -13.14773438 50.17210937 -14.37890625 50.16015625 C-16.17521484 50.14662109 -16.17521484 50.14662109 -18.0078125 50.1328125 C-18.93464844 50.12121094 -19.86148437 50.10960937 -20.81640625 50.09765625 C-19.50600163 43.69746544 -17.77624905 37.65662945 -15.59375 31.50390625 C-15.28820694 30.63117065 -14.98266388 29.75843506 -14.66786194 28.85925293 C-14.02735886 27.03323837 -13.38437903 25.20809082 -12.73901367 23.38378906 C-11.74752851 20.5796184 -10.76480294 17.77248817 -9.78320312 14.96484375 C-9.15806069 13.18601909 -8.53242753 11.4073668 -7.90625 9.62890625 C-7.61145248 8.78734985 -7.31665497 7.94579346 -7.01292419 7.07873535 C-4.54300785 0.11624892 -4.54300785 0.11624892 0 0 Z " fill="#080808" transform="translate(488.81640625,256.90234375)"/>
<path d="M0 0 C5.61 0 11.22 0 17 0 C20.59415707 8.69181054 23.73788665 17.52697582 26.85595703 26.39770508 C27.75709946 28.95766811 28.66555301 31.51496481 29.57421875 34.07226562 C30.1488843 35.70296761 30.72311894 37.33382154 31.296875 38.96484375 C31.70459137 40.1085569 31.70459137 40.1085569 32.12054443 41.27537537 C33.17930539 44.30693103 34 46.76416034 34 50 C29.38 50 24.76 50 20 50 C19.34 47.36 18.68 44.72 18 42 C11.73 41.67 5.46 41.34 -1 41 C-1.66 43.97 -2.32 46.94 -3 50 C-7.62 50 -12.24 50 -17 50 C-14.39679434 40.93560042 -11.33639751 32.03717766 -8.27441406 23.12011719 C-7.36791922 20.47937272 -6.46501624 17.83741903 -5.5625 15.1953125 C-4.98718973 13.51555287 -4.41167636 11.83586278 -3.8359375 10.15625 C-3.56615082 9.3667395 -3.29636414 8.577229 -3.0184021 7.76379395 C-1.11537783 2.23075565 -1.11537783 2.23075565 0 0 Z " fill="#080808" transform="translate(388,257)"/>
<path d="M0 0 C5.61 0 11.22 0 17 0 C20.93516347 9.10417227 24.30596533 18.31059924 27.50415039 27.6940918 C28.32254364 30.09192716 29.15019253 32.48643848 29.97851562 34.88085938 C30.50315593 36.41126929 31.02726469 37.94186156 31.55078125 39.47265625 C31.79758133 40.18511002 32.04438141 40.89756378 32.29866028 41.63160706 C33.28741478 44.551262 34 46.89409259 34 50 C29.71 50 25.42 50 21 50 C20.01 47.03 19.02 44.06 18 41 C11.73 41 5.46 41 -1 41 C-1.66 43.97 -2.32 46.94 -3 50 C-7.29 50 -11.58 50 -16 50 C-15.39105173 43.95015302 -13.66039793 38.62144804 -11.62109375 32.91015625 C-11.28956802 31.96563095 -10.9580423 31.02110565 -10.61647034 30.04795837 C-9.56286256 27.05063419 -8.50032935 24.0565651 -7.4375 21.0625 C-6.71880814 19.02299529 -6.00070281 16.9832838 -5.28320312 14.94335938 C-3.52891643 9.95982009 -1.76662158 4.97917934 0 0 Z " fill="#080808" transform="translate(737,257)"/>
<path d="M0 0 C5.61 0 11.22 0 17 0 C20.62770882 8.24479276 23.59691692 16.56059945 26.39697266 25.11547852 C28.51720237 31.59097945 30.77174465 37.9988265 33.15234375 44.3828125 C34 47 34 47 34 50 C29.71 50 25.42 50 21 50 C20.01 47.36 19.02 44.72 18 42 C11.73 41.67 5.46 41.34 -1 41 C-1.66 43.97 -2.32 46.94 -3 50 C-7.29 50 -11.58 50 -16 50 C-15.39105173 43.95015302 -13.66039793 38.62144804 -11.62109375 32.91015625 C-11.28956802 31.96563095 -10.9580423 31.02110565 -10.61647034 30.04795837 C-9.56286256 27.05063419 -8.50032935 24.0565651 -7.4375 21.0625 C-6.71880814 19.02299529 -6.00070281 16.9832838 -5.28320312 14.94335938 C-3.52891643 9.95982009 -1.76662158 4.97917934 0 0 Z " fill="#080808" transform="translate(648,257)"/>
<path d="M0 0 C4.62 0 9.24 0 14 0 C14.01981934 1.04454346 14.03963867 2.08908691 14.06005859 3.1652832 C14.13612114 7.0400405 14.22483728 10.91442257 14.31738281 14.78881836 C14.35566993 16.46582634 14.39052331 18.14291638 14.421875 19.82006836 C14.46753179 22.23060432 14.5255241 24.64057557 14.5859375 27.05078125 C14.59748871 27.80087967 14.60903992 28.55097809 14.62094116 29.32380676 C14.72695459 33.06127713 14.87619082 34.81428623 17 38 C19.43693311 38.36416047 19.43693311 38.36416047 22.125 38.1875 C23.49011719 38.14689453 23.49011719 38.14689453 24.8828125 38.10546875 C25.58148437 38.07066406 26.28015625 38.03585937 27 38 C29.36114054 34.30802406 29.32774246 30.67041641 29.37890625 26.42578125 C29.39590073 25.70134323 29.4128952 24.97690521 29.43040466 24.23051453 C29.48339156 21.92459736 29.52378685 19.6186975 29.5625 17.3125 C29.60640372 14.99567902 29.6530344 12.67899812 29.70530701 10.36235046 C29.73731252 8.9223638 29.76418755 7.48225253 29.78553772 6.04206848 C29.88822257 1.11177743 29.88822257 1.11177743 31 0 C33.18639453 -0.07258946 35.37500389 -0.08373783 37.5625 -0.0625 C39.35880859 -0.04896484 39.35880859 -0.04896484 41.19140625 -0.03515625 C42.11824219 -0.02355469 43.04507813 -0.01195312 44 0 C44.07473903 4.81970922 44.12887722 9.63907335 44.16479492 14.45922852 C44.17978456 16.09535609 44.20018332 17.73144415 44.22631836 19.36743164 C44.54396217 39.77760336 44.54396217 39.77760336 39.68896484 45.56201172 C33.28965904 51.42440015 25.87279569 51.43752889 17.64453125 51.31640625 C11.51300504 50.78408725 7.92020118 48.92020118 3.625 44.625 C0.20081756 39.09362837 -0.28242202 33.92287319 -0.1953125 27.5390625 C-0.1924826 26.74849457 -0.18965271 25.95792664 -0.18673706 25.1434021 C-0.17560955 22.63710916 -0.15051926 20.13118355 -0.125 17.625 C-0.11496058 15.91797394 -0.10583641 14.21094223 -0.09765625 12.50390625 C-0.07569463 8.3357976 -0.04121671 4.16796092 0 0 Z " fill="#080808" transform="translate(583,257)"/>
<path d="M0 0 C0.92060211 -0.00846954 1.84120422 -0.01693909 2.78970337 -0.02566528 C5.83853906 -0.04910018 8.886872 -0.05005589 11.93579102 -0.04882812 C14.05184635 -0.05592578 16.16789975 -0.06362419 18.28395081 -0.07189941 C22.72174426 -0.08535916 27.15935978 -0.08690626 31.59716797 -0.08105469 C37.28835872 -0.07515729 42.97869679 -0.10574532 48.66972256 -0.14617157 C53.04059969 -0.17200224 57.41127027 -0.17493018 61.78221321 -0.17127991 C63.88061733 -0.1729755 65.97903054 -0.18266004 68.07736015 -0.20042419 C71.0104897 -0.22252215 73.94187719 -0.21295857 76.875 -0.1953125 C77.74422592 -0.20857574 78.61345184 -0.22183899 79.50901794 -0.23550415 C85.37326535 -0.15339229 85.37326535 -0.15339229 88.57264709 2.76306152 C90.00219727 5.41992188 90.00219727 5.41992188 90.00219727 8.54492188 C88.80009159 12.0009757 88.20058429 12.69535012 85.00219727 14.41992188 C82.02735861 14.86777209 79.07827317 14.83990257 76.07446289 14.82397461 C75.17322189 14.83083786 74.2719809 14.83770111 73.34342957 14.84477234 C70.3649418 14.863071 67.38697917 14.85919881 64.40844727 14.85351562 C62.33866199 14.85807561 60.26887823 14.86338063 58.19909668 14.86940002 C53.86142831 14.87833691 49.52394399 14.87590098 45.1862793 14.8659668 C39.62413267 14.85447034 34.06262024 14.87469627 28.50055695 14.90388393 C24.2266231 14.9222172 19.95284208 14.92195931 15.67887878 14.91624641 C13.62793589 14.91609288 11.57698284 14.92216361 9.52607727 14.93453789 C6.66028872 14.9493935 3.79568283 14.93881118 0.92993164 14.92163086 C0.08097824 14.93129883 -0.76797516 14.9409668 -1.64265442 14.95092773 C-5.43288461 14.90327751 -7.38141494 14.86046699 -10.52844238 12.61122131 C-12.66235086 9.4288621 -12.47370038 7.15911764 -11.99780273 3.41992188 C-8.86741376 -0.71019667 -4.78559923 -0.0160972 0 0 Z " fill="#050505" transform="translate(33.997802734375,243.580078125)"/>
<path d="M0 0 C3.68437092 0.28897027 4.73547802 0.51225304 7.1875 3.25 C7.58908904 6.36541551 7.73405672 9.12962977 7.70507812 12.24780273 C7.7120874 13.16840485 7.71909668 14.08900696 7.72631836 15.0375061 C7.74395098 18.08650712 7.73225585 21.13458297 7.71875 24.18359375 C7.72144363 26.29964883 7.72532496 28.4157027 7.73034668 30.53175354 C7.73624907 34.96961231 7.72765564 39.4071493 7.70898438 43.8449707 C7.68620854 49.53608319 7.69930489 55.2264406 7.72327423 60.91752529 C7.73772395 65.28841344 7.73312972 69.65912242 7.72276306 74.03001595 C7.72009278 76.12839916 7.72337609 78.2267986 7.73268127 80.32516289 C7.74283152 83.25814806 7.72736616 86.18990884 7.70507812 89.12280273 C7.71317505 89.99202866 7.72127197 90.86125458 7.72961426 91.75682068 C7.64706945 97.61514371 7.64706945 97.61514371 5.34655762 100.79310608 C2.42641154 102.76356904 0.63903564 102.7640585 -2.8125 102.25 C-5.37199546 100.39657225 -5.79168798 99.31243607 -6.8125 96.25 C-6.9193684 93.40112799 -6.96976232 90.57636206 -6.97363281 87.72705078 C-6.97859772 86.85682281 -6.98356262 85.98659485 -6.98867798 85.08999634 C-7.00329445 82.20842704 -7.01010048 79.32691279 -7.015625 76.4453125 C-7.02137653 74.44375609 -7.02713427 72.44219969 -7.03289795 70.44064331 C-7.04340623 66.24249006 -7.04925015 62.04435596 -7.05273438 57.84619141 C-7.0582211 52.46696652 -7.08225373 47.0879945 -7.11070633 41.70884895 C-7.12932941 37.57387553 -7.13453812 33.43896308 -7.13607025 29.30395126 C-7.13909766 27.32081595 -7.14712913 25.33768174 -7.16025543 23.35458755 C-7.17731019 20.58010859 -7.17543715 17.8062484 -7.16894531 15.03173828 C-7.1781601 14.21286133 -7.18737488 13.39398438 -7.1968689 12.55029297 C-7.1569634 7.10589922 -6.42928802 0.57149227 0 0 Z " fill="#050505" transform="translate(271.8125,7.75)"/>
<path d="M0 0 C25.57142857 0 25.57142857 0 32 3.75 C36.44985788 8.75609012 37.50566677 13.04436041 37.2890625 19.6015625 C36.65413977 24.86970517 34.08508151 28.73193479 30 32 C24.50455011 34.68070726 18.98090455 34.14587572 13 34 C13 39.28 13 44.56 13 50 C8.71 50 4.42 50 0 50 C0 33.5 0 17 0 0 Z " fill="#080808" transform="translate(334,257)"/>
<path d="M0 0 C0.97453125 0.02255859 1.9490625 0.04511719 2.953125 0.06835938 C5.34535515 0.12699247 7.7343615 0.20898847 10.125 0.3125 C6.80045234 4.93944778 2.86916489 8.15098576 -1.625 11.5625 C-2.37289795 12.13170166 -3.1207959 12.70090332 -3.89135742 13.28735352 C-11.17525126 18.71755492 -18.8254746 23.13407049 -26.875 27.3125 C-27.92300781 27.87582031 -28.97101563 28.43914062 -30.05078125 29.01953125 C-37.4185552 32.87419444 -45.0071294 35.65698153 -52.875 38.3125 C-54.33873047 38.85390625 -54.33873047 38.85390625 -55.83203125 39.40625 C-61.73073057 41.53656001 -67.5898874 42.96099226 -73.75 44.0625 C-74.46389893 44.19027832 -75.17779785 44.31805664 -75.91333008 44.44970703 C-80.0261166 45.13653996 -83.65501493 45.3125 -87.875 45.3125 C-87.875 41.0225 -87.875 36.7325 -87.875 32.3125 C-86.67488281 32.10496094 -85.47476562 31.89742188 -84.23828125 31.68359375 C-65.29651569 28.24871781 -47.75396361 22.60982305 -30.875 13.3125 C-30.23385254 12.96509766 -29.59270508 12.61769531 -28.93212891 12.25976562 C-21.04800073 8.12692187 -21.04800073 8.12692187 -14.15625 2.59375 C-9.46122001 -0.67041371 -5.56742533 -0.24517794 0 0 Z " fill="#2A2E87" transform="translate(378.875,377.6875)"/>
<path d="M0 0 C10.23 0 20.46 0 31 0 C31 3.63 31 7.26 31 11 C25.39 11 19.78 11 14 11 C14 13.64 14 16.28 14 19 C19.28 19 24.56 19 30 19 C30 22.63 30 26.26 30 30 C24.72 30 19.44 30 14 30 C14 32.64 14 35.28 14 38 C19.61 38 25.22 38 31 38 C31 41.63 31 45.26 31 49 C20.77 49 10.54 49 0 49 C0 32.83 0 16.66 0 0 Z " fill="#2B2F88" transform="translate(387,320)"/>
<path d="M0 0 C9.9 0 19.8 0 30 0 C30 3.63 30 7.26 30 11 C22.08 11.495 22.08 11.495 14 12 C13.67 14.64 13.34 17.28 13 20 C18.28 20 23.56 20 29 20 C29 23.3 29 26.6 29 30 C24.05 30.33 19.1 30.66 14 31 C14 33.31 14 35.62 14 38 C19.61 38.33 25.22 38.66 31 39 C31 42.63 31 46.26 31 50 C20.77 50 10.54 50 0 50 C0 33.5 0 17 0 0 Z " fill="#E30814" transform="translate(196,195)"/>
<path d="M0 0 C4.74543791 2.5302003 8.43106017 6.52227658 10.828125 11.31640625 C12.18666003 24.42025044 12.18666003 24.42025044 8.328125 29.94140625 C3.67051431 35.01254313 -1.29428108 37.46751643 -8.171875 37.87890625 C-14.81338484 37.59281044 -19.13217158 34.51713888 -23.546875 29.75390625 C-27.24064438 24.21325217 -27.98160457 19.94798892 -27.171875 13.31640625 C-25.29049016 7.55959396 -20.93975793 3.81598534 -16.171875 0.31640625 C-11.6099859 -1.9645383 -4.78391724 -1.50572935 0 0 Z " fill="#030303" transform="translate(256.171875,116.68359375)"/>
<path d="M0 0 C4.66788755 2.75260998 7.61175638 6.59283645 9.6875 11.5625 C10.82757612 17.73645069 10.17443488 23.37294718 7.03125 28.83984375 C4.02389756 32.69519964 0.28019851 35.0316005 -4.3125 36.5625 C-10.32159059 37.10031878 -15.16954445 37.03100491 -20.3125 33.5625 C-24.70819633 29.78015665 -27.69378445 26.13248873 -28.703125 20.30859375 C-29.19807018 13.12063986 -26.83733734 8.07274636 -22.3125 2.5625 C-16.43385455 -3.1114165 -7.24395548 -3.01137613 0 0 Z " fill="#020202" transform="translate(203.3125,117.4375)"/>
<path d="M0 0 C9.9 0 19.8 0 30 0 C30 3.3 30 6.6 30 10 C24.39 10 18.78 10 13 10 C13 12.97 13 15.94 13 19 C18.28 19 23.56 19 29 19 C29 22.3 29 25.6 29 29 C23.72 29 18.44 29 13 29 C13 31.97 13 34.94 13 38 C18.61 38 24.22 38 30 38 C30 41.63 30 45.26 30 49 C20.1 49 10.2 49 0 49 C0 32.83 0 16.66 0 0 Z " fill="#E3010D" transform="translate(291,196)"/>
<path d="M0 0 C0 4.62 0 9.24 0 14 C-1.19625 13.34 -2.3925 12.68 -3.625 12 C-7.29331528 10.19167557 -9.86013035 9.28002267 -14 10 C-17.6578218 12.03993908 -19.66946174 13.50419262 -22 17 C-22.64110173 21.67666844 -23.11890087 26.77883619 -20.94921875 31.0859375 C-18.15129859 34.46985274 -16.14399108 35.88784401 -11.8125 36.3125 C-7.06847605 35.92364558 -4.96022726 34.56249999 -1 32 C-0.34 31.67 0.32 31.34 1 31 C1 35.95 1 40.9 1 46 C-7.09734872 49.13445757 -14.33582987 50.69036635 -22.6875 47.5 C-29.58407134 44.05781749 -34.07013259 38.00769455 -37 31 C-38.22336113 21.8247915 -37.61822609 13.5570094 -32 6 C-22.72319029 -4.35653341 -12.24493049 -4.66473543 0 0 Z " fill="#E30712" transform="translate(463,197)"/>
<path d="M0 0 C10.23 0 20.46 0 31 0 C31 3.3 31 6.6 31 10 C25.39 10 19.78 10 14 10 C14 12.97 14 15.94 14 19 C19.28 19 24.56 19 30 19 C30 22.3 30 25.6 30 29 C24.72 29 19.44 29 14 29 C14 35.6 14 42.2 14 49 C9.38 49 4.76 49 0 49 C0 32.83 0 16.66 0 0 Z " fill="#E40915" transform="translate(157,196)"/>
<path d="M0 0 C4.95 0 9.9 0 15 0 C12.77485051 6.67544848 12.77485051 6.67544848 9.99609375 10.1171875 C0.01775095 23.29881701 -1.85797041 33.62823677 -1 50 C-5.62 50 -10.24 50 -15 50 C-14.94457031 48.46472656 -14.88914062 46.92945313 -14.83203125 45.34765625 C-14.66166325 31.01124704 -16.64994009 21.92478386 -25.65478516 10.69433594 C-31 3.96188748 -31 3.96188748 -31 1 C-25.78794842 0.27554495 -21.18333502 -0.07498324 -16 1 C-12.42012771 4.64555802 -9 9.6975461 -9 15 C-8.34 15 -7.68 15 -7 15 C-6.773125 14.195625 -6.54625 13.39125 -6.3125 12.5625 C-4.65152007 8.05412589 -2.39720404 4.16356492 0 0 Z " fill="#0A0A0A" transform="translate(709,257)"/>
<path d="M0 0 C2.14576637 -0.02685938 4.29162645 -0.04633088 6.4375 -0.0625 C7.63246094 -0.07410156 8.82742187 -0.08570313 10.05859375 -0.09765625 C13 0 13 0 14 1 C14.29693865 2.70259069 14.58770383 4.40647304 14.84838867 6.11499023 C17.37399017 22.48139708 22.42672712 37.61168078 29.4609375 52.5703125 C31 56 31 56 31 58 C31.66 58.33 32.32 58.66 33 59 C32.65066406 59.88042969 32.30132812 60.76085937 31.94140625 61.66796875 C31.48636719 62.82941406 31.03132813 63.99085938 30.5625 65.1875 C30.11003906 66.33605469 29.65757812 67.48460937 29.19140625 68.66796875 C28.18906699 71.47123233 27.47987205 74.07112576 27 77 C18.92778588 66.61541773 13.10572912 53.40930307 9 41 C8.58041016 39.7627417 8.58041016 39.7627417 8.15234375 38.50048828 C3.849352 25.6972874 0.82574674 13.49843146 0 0 Z " fill="#2B2F87" transform="translate(101,270)"/>
<path d="M0 0 C11.55 0 23.1 0 35 0 C35 3.63 35 7.26 35 11 C31.7 11.33 28.4 11.66 25 12 C24.67 24.21 24.34 36.42 24 49 C19.71 49 15.42 49 11 49 C11 36.46 11 23.92 11 11 C7.37 11 3.74 11 0 11 C0 7.37 0 3.74 0 0 Z " fill="#262A85" transform="translate(447,320)"/>
<path d="M0 0 C2.5112418 2.32522389 4.72789898 4.79234784 6.8125 7.5 C7.25207031 8.0671875 7.69164062 8.634375 8.14453125 9.21875 C9.28144335 11.58601903 8.75995563 12.52020416 8 15 C7.46796367 16.38755345 6.90869799 17.764857 6.328125 19.1328125 C-0.2306865 34.8606072 -5.01525528 50.0394542 -7 67 C-11.62 67 -16.24 67 -21 67 C-19.44235265 46.43905501 -13.33194508 26.32495752 -4 8 C-3.56042969 7.10925781 -3.12085937 6.21851563 -2.66796875 5.30078125 C-1.7920076 3.52719206 -0.89899318 1.76202663 0 0 Z " fill="#2B2F87" transform="translate(122,167)"/>
<path d="M0 0 C4.62 0 9.24 0 14 0 C14 16.5 14 33 14 50 C9.38 50 4.76 50 0 50 C0 33.5 0 17 0 0 Z " fill="#262A85" transform="translate(490,319)"/>
<path d="M0 0 C4.62 0 9.24 0 14 0 C14 16.5 14 33 14 50 C9.38 50 4.76 50 0 50 C0 33.5 0 17 0 0 Z " fill="#E3000C" transform="translate(472,195)"/>
<path d="M0 0 C3.19972296 2.51893084 5.76680802 5.07620734 7 9 C7.5505338 15.82661907 6.35544372 19.6480224 2.375 25.3125 C-1.20136427 27.85360093 -4.65558843 28.31678001 -9 28 C-13.41231959 25.87554983 -16.23862151 23.59915494 -18 19 C-18.52919768 14.1269714 -18.64108102 9.67393376 -16.875 5.0625 C-11.75220164 -0.5725782 -7.28113205 -2.3374852 0 0 Z " fill="#FAFAFC" transform="translate(592,331)"/>
<path d="M0 0 C4.12025209 1.82057651 6.82371564 4.05044691 9 8 C9.73989125 13.32123808 10.18428687 18.9389047 7.1875 23.625 C4.8716658 26.13933428 3.17009174 27.80867691 -0.26953125 28.37109375 C-7.98481876 28.57256823 -7.98481876 28.57256823 -11.5 25.8125 C-15.35642442 21.47402253 -16.53193118 18.01559471 -16.38671875 12.12890625 C-15.67478916 8.20969791 -13.63065809 4.94910617 -11 2 C-7.28599617 -0.29067302 -4.34523856 -0.38116128 0 0 Z " fill="#FEFAFA" transform="translate(526,206)"/>
<path d="M0 0 C10.61290323 0 10.61290323 0 15.3125 3.9375 C17.85281916 8.54770885 17.63605224 12.84952818 17 18 C15.70851526 21.26269829 14.51355382 22.5619688 11.875 24.8125 C9 26 9 26 0 26 C0 17.42 0 8.84 0 0 Z " fill="#FEF8F8" transform="translate(250,207)"/>
<path d="M0 0 C9.7 0 9.7 0 14 3 C17.13283495 7.49039676 17.78547027 11.68215396 17 17 C15.24348793 21.65475698 14.09736494 22.9269763 10 26 C5.05 26.495 5.05 26.495 0 27 C0 18.09 0 9.18 0 0 Z " fill="#FAFAFC" transform="translate(347,331)"/>
<path d="M0 0 C-0.5061314 4.42864971 -1.84889946 6.84889946 -5 10 C-9.804235 12.82602059 -13.46570469 13.42897093 -18.8515625 12.57421875 C-22.18862598 11.68231269 -24.41808651 10.26704599 -27 8 C-28.375 5.25 -28.375 5.25 -29 3 C-27.3896509 1.3896509 -25.52736842 1.66399268 -23.30078125 1.46484375 C-21.85735352 1.33432617 -21.85735352 1.33432617 -20.38476562 1.20117188 C-19.37091797 1.11416016 -18.35707031 1.02714844 -17.3125 0.9375 C-15.82073242 0.80118164 -15.82073242 0.80118164 -14.29882812 0.66210938 C-9.51864563 0.23911252 -4.80437244 -0.12276931 0 0 Z " fill="#F4F4F4" transform="translate(311,164)"/>
<path d="M0 0 C0.66 0 1.32 0 2 0 C2.83806616 2.93622464 3.67062444 5.87382067 4.5 8.8125 C4.73847656 9.64587891 4.97695313 10.47925781 5.22265625 11.33789062 C5.44824219 12.14033203 5.67382812 12.94277344 5.90625 13.76953125 C6.11572266 14.50792236 6.32519531 15.24631348 6.54101562 16.00708008 C7 18 7 18 7 21 C3.04 21 -0.92 21 -5 21 C-4.3900874 16.01155691 -3.36525565 11.39844654 -1.9375 6.5625 C-1.57527344 5.32628906 -1.21304688 4.09007812 -0.83984375 2.81640625 C-0.56269531 1.88699219 -0.28554688 0.95757812 0 0 Z " fill="#EDEDED" transform="translate(745,267)"/>
<path d="M0 0 C2.68387755 2.68387755 3.09546996 5.17101413 4.125 8.8125 C4.47820312 10.03582031 4.83140625 11.25914062 5.1953125 12.51953125 C6 16 6 16 6 21 C2.04 21 -1.92 21 -6 21 C-4.27806003 13.8662487 -2.42393534 6.92552955 0 0 Z " fill="#FDEFEF" transform="translate(396,205)"/>
<path d="M0 0 C2.11168894 2.11168894 2.48415911 3.05689421 3.2890625 5.84375 C3.61777344 6.97103516 3.61777344 6.97103516 3.953125 8.12109375 C4.17484375 8.90613281 4.3965625 9.69117188 4.625 10.5 C4.85445313 11.28503906 5.08390625 12.07007813 5.3203125 12.87890625 C7 18.7078218 7 18.7078218 7 21 C3.04 21 -0.92 21 -5 21 C-4.42351925 13.64987044 -2.28953836 6.98575424 0 0 Z " fill="#EFEFEF" transform="translate(396,267)"/>
<path d="M0 0 C2.20330318 3.30495477 3.04438371 6.12332472 4.125 9.9375 C4.47820312 11.16339844 4.83140625 12.38929688 5.1953125 13.65234375 C6 17 6 17 6 21 C2.04 21 -1.92 21 -6 21 C-4.27806003 13.8662487 -2.42393534 6.92552955 0 0 Z " fill="#F0F0F0" transform="translate(493,267)"/>
<path d="M0 0 C3.27037845 2.62379933 4.02748522 5.55328305 5.1875 9.5 C5.53167969 10.6446875 5.87585938 11.789375 6.23046875 12.96875 C7 16 7 16 7 19 C3.04 19 -0.92 19 -5 19 C-4.39297368 12.3227105 -2.22368606 6.29872004 0 0 Z " fill="#F1F1F1" transform="translate(656,269)"/>
<path d="M0 0 C6.23287671 -0.47945205 6.23287671 -0.47945205 9.5 1.5625 C11 4 11 4 10.9375 7.625 C10 11 10 11 7 13 C4.66800612 13.07905064 2.33167378 13.08798769 0 13 C0 8.71 0 4.42 0 0 Z " fill="#EAEAF3" transform="translate(529,330)"/>
<path d="M0 0 C6.34507042 -0.35915493 6.34507042 -0.35915493 8.9375 1.0625 C10.59162584 4.07884711 10.30575763 6.63666608 10 10 C6.99382731 13.00617269 4.17618402 12.59585316 0 13 C0 8.71 0 4.42 0 0 Z " fill="#F7F7F7" transform="translate(441,268)"/>
<path d="M0 0 C6.625 -0.25 6.625 -0.25 10 2 C10.36328125 3.875 10.36328125 3.875 10.3125 6 C10.30863281 6.70125 10.30476563 7.4025 10.30078125 8.125 C10 10 10 10 8 12 C5.31160615 12.26991906 2.70858064 12.08737357 0 12 C0 8.04 0 4.08 0 0 Z " fill="#FEF8F9" transform="translate(344,206)"/>
<path d="M0 0 C7.75 -0.125 7.75 -0.125 10 1 C10 3.64 10 6.28 10 9 C6.78548731 10.60725635 3.56387464 10.05748185 0 10 C0 6.7 0 3.4 0 0 Z " fill="#FBFBFB" transform="translate(347,269)"/>
<path d="M0 0 C2.64 0 5.28 0 8 0 C6.3373632 3.9298688 3.9738098 6.95703183 1 10 C-1.8125 10.375 -1.8125 10.375 -4 10 C-2.8905928 6.51329166 -1.73662334 3.22515763 0 0 Z " fill="#E61C27" transform="translate(525,181)"/>
</svg>